<svg width="28" height="28" viewBox="0 0 28 28" fill="none" xmlns="http://www.w3.org/2000/svg">
<g id="alone">
<path id="face" d="M9.8 17.15C9.31 17.15 8.89583 16.9808 8.5575 16.6425C8.21917 16.3042 8.05 15.89 8.05 15.4C8.05 14.91 8.21917 14.4958 8.5575 14.1575C8.89583 13.8192 9.31 13.65 9.8 13.65C10.29 13.65 10.7042 13.8192 11.0425 14.1575C11.3808 14.4958 11.55 14.91 11.55 15.4C11.55 15.89 11.3808 16.3042 11.0425 16.6425C10.7042 16.9808 10.29 17.15 9.8 17.15ZM18.2 17.15C17.71 17.15 17.2958 16.9808 16.9575 16.6425C16.6192 16.3042 16.45 15.89 16.45 15.4C16.45 14.91 16.6192 14.4958 16.9575 14.1575C17.2958 13.8192 17.71 13.65 18.2 13.65C18.69 13.65 19.1042 13.8192 19.4425 14.1575C19.7808 14.4958 19.95 14.91 19.95 15.4C19.95 15.89 19.7808 16.3042 19.4425 16.6425C19.1042 16.9808 18.69 17.15 18.2 17.15ZM14 25.2C17.1267 25.2 19.775 24.115 21.945 21.945C24.115 19.775 25.2 17.1267 25.2 14C25.2 13.44 25.165 12.8975 25.095 12.3725C25.025 11.8475 24.8967 11.34 24.71 10.85C24.22 10.9667 23.73 11.0542 23.24 11.1125C22.75 11.1708 22.2367 11.2 21.7 11.2C19.5767 11.2 17.57 10.745 15.68 9.835C13.79 8.925 12.18 7.65333 10.85 6.02C10.1033 7.84 9.03583 9.42083 7.6475 10.7625C6.25917 12.1042 4.64333 13.1133 2.8 13.79V14C2.8 17.1267 3.885 19.775 6.055 21.945C8.225 24.115 10.8733 25.2 14 25.2ZM14 28C12.0633 28 10.2433 27.6325 8.54 26.8975C6.83667 26.1625 5.355 25.165 4.095 23.905C2.835 22.645 1.8375 21.1633 1.1025 19.46C0.3675 17.7567 0 15.9367 0 14C0 12.0633 0.3675 10.2433 1.1025 8.54C1.8375 6.83667 2.835 5.355 4.095 4.095C5.355 2.835 6.83667 1.8375 8.54 1.1025C10.2433 0.3675 12.0633 0 14 0C15.9367 0 17.7567 0.3675 19.46 1.1025C21.1633 1.8375 22.645 2.835 23.905 4.095C25.165 5.355 26.1625 6.83667 26.8975 8.54C27.6325 10.2433 28 12.0633 28 14C28 15.9367 27.6325 17.7567 26.8975 19.46C26.1625 21.1633 25.165 22.645 23.905 23.905C22.645 25.165 21.1633 26.1625 19.46 26.8975C17.7567 27.6325 15.9367 28 14 28ZM12.11 2.975C13.09 4.60833 14.42 5.92083 16.1 6.9125C17.78 7.90417 19.6467 8.4 21.7 8.4C22.0267 8.4 22.3417 8.3825 22.645 8.3475C22.9483 8.3125 23.2633 8.27167 23.59 8.225C22.61 6.59167 21.28 5.27917 19.6 4.2875C17.92 3.29583 16.0533 2.8 14 2.8C13.6733 2.8 13.3583 2.8175 13.055 2.8525C12.7517 2.8875 12.4367 2.92833 12.11 2.975ZM3.395 10.465C4.585 9.78833 5.62333 8.91333 6.51 7.84C7.39667 6.76667 8.06167 5.565 8.505 4.235C7.315 4.91167 6.27667 5.78667 5.39 6.86C4.50333 7.93333 3.83833 9.135 3.395 10.465Z" fill="#0E0F0E"/>
</g>
</svg>
