<svg width="254" height="219" viewBox="0 0 254 219" fill="none" xmlns="http://www.w3.org/2000/svg">
<g id="Clip path group">
<mask id="mask0_502_2147" style="mask-type:luminance" maskUnits="userSpaceOnUse" x="0" y="0" width="254" height="219">
<g id="__lottie_element_949">
<path id="Vector" d="M254 0H0V219H254V0Z" fill="white"/>
</g>
</mask>
<g mask="url(#mask0_502_2147)">
<g id="Group">
<g id="Group_2" opacity="0.184518">
<g id="Group_3">
<path id="Vector_2" d="M89 -8.57092C89 -6.31392 89 5.04108 89 5.04108" stroke="#EB49F4" stroke-width="4" stroke-linecap="round" stroke-linejoin="round"/>
</g>
</g>
<g id="Group_4" opacity="0.974619">
<g id="Group_5">
<path id="Vector_3" d="M227.5 83.472C227.5 88.364 227.5 111.574 227.5 111.574" stroke="#FFA722" stroke-width="4" stroke-linecap="round" stroke-linejoin="round"/>
</g>
</g>
<g id="Group_6">
<g id="Group_7">
<path id="Vector_4" d="M130.752 18.3098C130.752 21.6544 128.042 24.3645 124.697 24.3645C121.353 24.3645 118.643 21.6544 118.643 18.3098C118.643 14.9652 121.353 12.2552 124.697 12.2552C128.042 12.2552 130.752 14.9652 130.752 18.3098Z" fill="#FFA722"/>
</g>
</g>
<g id="Group_8">
<g id="Group_9">
<path id="Vector_5" d="M221.542 72.4495C221.542 72.4495 216.5 58.1645 227.984 48.0815C232.382 44.2195 234.836 38.4935 233.913 32.7135C233.34 29.1295 231.658 25.0595 227.927 20.8745" stroke="#75F6F8" stroke-width="4" stroke-linecap="round" stroke-linejoin="round"/>
</g>
</g>
<g id="Group_10">
<g id="Group_11">
<path id="Vector_6" d="M248.46 69.5749C248.46 71.66 246.77 73.3499 244.685 73.3499C242.6 73.3499 240.91 71.66 240.91 69.5749C240.91 67.4899 242.6 65.7999 244.685 65.7999C246.77 65.7999 248.46 67.4899 248.46 69.5749Z" fill="#CE87FF"/>
</g>
</g>
<g id="Group_12" opacity="0.974619">
<g id="Group_13">
<path id="Vector_7" d="M17.5 121.635C17.5 126.527 17.5 149.737 17.5 149.737" stroke="#FFA722" stroke-width="4" stroke-linecap="round" stroke-linejoin="round"/>
</g>
</g>
<g id="Group_14">
<g id="Group_15">
<path id="Vector_8" d="M52.7639 105.998C52.7639 107.965 51.17 109.559 49.2034 109.559C47.2368 109.559 45.6428 107.965 45.6428 105.998C45.6428 104.032 47.2368 102.438 49.2034 102.438C51.17 102.438 52.7639 104.032 52.7639 105.998Z" fill="#CE87FF"/>
</g>
</g>
<g id="Group_16">
<g id="Group_17">
<path id="Vector_9" d="M50.5421 185.136C50.5421 185.136 45.5001 170.851 56.9841 160.768C61.3821 156.906 63.8361 151.18 62.9131 145.4C62.3401 141.816 60.6581 137.746 56.9271 133.561" stroke="#75F6F8" stroke-width="4" stroke-linecap="round" stroke-linejoin="round"/>
</g>
</g>
</g>
</g>
</g>
</svg>
