<svg width="80" height="80" viewBox="0 0 80 80" fill="none" xmlns="http://www.w3.org/2000/svg">
<g id="&#237;&#148;&#132;&#235;&#161;&#156;&#237;&#149;&#132; 2">
<g id="&#237;&#148;&#132;&#235;&#161;&#156;&#237;&#149;&#132; 2_2">
<circle id="Ellipse 4" cx="40" cy="40" r="39" fill="#D9D9D9" stroke="#0E0F0E" stroke-width="2"/>
<circle id="Ellipse 28" cx="40" cy="40.0001" r="38.2667" fill="url(#paint0_linear_611_1985)"/>
<g id="Mask group">
<mask id="mask0_611_1985" style="mask-type:alpha" maskUnits="userSpaceOnUse" x="1" y="1" width="78" height="78">
<circle id="Ellipse 9" cx="40" cy="40.0001" r="38.2667" fill="#D6DCDC"/>
</mask>
<g mask="url(#mask0_611_1985)">
<g id="&#236;&#186;&#144;&#235;&#166;&#173;&#237;&#132;&#176;">
<path id="HAPIT" d="M12.6667 72.5815V24.8314C12.6667 18.4912 16.8275 14.1323 23.465 14.0332H48.0335C62.8934 14.0332 72.8001 22.751 72.8001 36.3232C72.8001 49.8953 62.8934 58.9103 48.0335 58.9103H34.4614V72.5815C34.4614 79.0208 30.2015 83.3797 23.465 83.3797C17.0257 83.3797 12.6667 79.0208 12.6667 72.5815Z" fill="#46D681"/>
<path id="Ellipse 24" d="M48.4663 33.8468C48.4663 38.4063 44.7702 42.1024 40.2108 42.1024C35.6514 42.1024 31.9553 38.4063 31.9553 33.8468C31.9553 29.2874 35.6514 25.5913 40.2108 25.5913C44.7702 25.5913 48.4663 29.2874 48.4663 33.8468Z" fill="#F5F5F5"/>
<circle id="Ellipse 26" cx="59.8176" cy="33.8468" r="8.25554" fill="#F5F5F5"/>
<path id="Ellipse 25" d="M47.4344 32.8152C47.4344 36.2347 44.6623 39.0068 41.2427 39.0068C37.8232 39.0068 35.0511 36.2347 35.0511 32.8152C35.0511 29.3956 37.8232 26.6235 41.2427 26.6235C44.6623 26.6235 47.4344 29.3956 47.4344 32.8152Z" fill="#0F0E0E"/>
<path id="Ellipse 27" d="M67.0413 32.8152C67.0413 36.2347 64.2692 39.0068 60.8496 39.0068C57.4301 39.0068 54.658 36.2347 54.658 32.8152C54.658 29.3956 57.4301 26.6235 60.8496 26.6235C64.2692 26.6235 67.0413 29.3956 67.0413 32.8152Z" fill="#0F0E0E"/>
</g>
</g>
</g>
<path id="Union" d="M42.2398 67.3337C44.022 67.3337 45.4667 65.9431 45.4667 64.2276C45.4667 62.5121 44.022 61.1215 42.2398 61.1215C41.922 61.1215 41.615 61.1657 41.3249 61.2482C41.4988 60.8244 41.5944 60.3625 41.5944 59.8791C41.5944 57.8206 39.8608 56.1518 37.7222 56.1518C37.1587 56.1518 36.6232 56.2677 36.1402 56.4761C35.4945 54.8343 33.8458 53.667 31.9139 53.667C29.4189 53.667 27.3963 55.6139 27.3963 58.0155C27.3963 58.2443 27.4147 58.4692 27.4501 58.6885C27.2222 58.6544 26.9887 58.6367 26.7509 58.6367C24.2559 58.6367 22.2333 60.5836 22.2333 62.9852C22.2333 65.3868 24.2559 67.3337 26.7509 67.3337H42.2398Z" fill="#9EFFB4"/>
<g id="Group 2">
<path id="Polygon 3" d="M50.4645 14.6087C51.1616 14.5655 51.3988 15.521 50.7625 15.8089L40.0093 20.675C39.0192 21.123 37.8562 20.6438 37.4692 19.6282L36.8129 17.9059C36.3599 16.7173 37.1893 15.4303 38.4588 15.3517L50.4645 14.6087Z" fill="#59E9FF"/>
<path id="Polygon 5" d="M49.0045 14.6087C48.3074 14.5655 48.0702 15.521 48.7064 15.8089L59.4597 20.675C60.4498 21.123 61.6128 20.6438 61.9998 19.6282L62.6561 17.9059C63.1091 16.7173 62.2797 15.4303 61.0102 15.3517L49.0045 14.6087Z" fill="#59E9FF"/>
<path id="Polygon 4" d="M50.3369 15.3083C51.0129 15.3379 51.2521 14.4251 50.6485 14.1193L41.9625 9.7188C40.9441 9.20289 39.7045 9.70276 39.329 10.7808L38.7746 12.372C38.3589 13.5651 39.211 14.8216 40.4733 14.8768L50.3369 15.3083Z" fill="#59E9FF"/>
<path id="Polygon 6" d="M49.1322 15.3083C48.4562 15.3379 48.217 14.4251 48.8206 14.1193L57.5066 9.7188C58.5249 9.20289 59.7645 9.70276 60.1401 10.7808L60.6945 12.372C61.1102 13.5651 60.2581 14.8216 58.9958 14.8768L49.1322 15.3083Z" fill="#59E9FF"/>
<rect id="Rectangle 74" x="47.9998" y="12.9678" width="3.14352" height="3.77222" rx="1.25741" fill="#01CDEC"/>
</g>
</g>
<path id="Union_2" d="M22.4991 34.5335C23.8619 34.5335 24.9667 33.56 24.9667 32.3592C24.9667 31.1584 23.8619 30.185 22.4991 30.185C22.2561 30.185 22.0213 30.2159 21.7994 30.2736C21.9325 29.977 22.0056 29.6536 22.0056 29.3153C22.0056 27.8743 20.6798 26.7062 19.0445 26.7062C18.6135 26.7062 18.2041 26.7873 17.8347 26.9332C17.3409 25.7839 16.0801 24.9668 14.6028 24.9668C12.6949 24.9668 11.1482 26.3296 11.1482 28.0107C11.1482 28.1709 11.1622 28.3283 11.1893 28.4818C11.015 28.458 10.8365 28.4456 10.6546 28.4456C8.74672 28.4456 7.20001 29.8084 7.20001 31.4895C7.20001 33.1706 8.74672 34.5335 10.6546 34.5335H22.4991Z" fill="#9EFFB4"/>
<path id="Union_3" d="M73.6352 50.9334C74.6835 50.9334 75.5334 50.099 75.5334 49.0698C75.5334 48.0405 74.6835 47.2061 73.6352 47.2061C73.4483 47.2061 73.2677 47.2327 73.097 47.2821C73.1994 47.0278 73.2556 46.7507 73.2556 46.4607C73.2556 45.2256 72.2358 44.2243 70.9778 44.2243C70.6463 44.2243 70.3313 44.2938 70.0472 44.4189C69.6674 43.4338 68.6976 42.7334 67.5611 42.7334C66.0935 42.7334 64.9037 43.9015 64.9037 45.3425C64.9037 45.4798 64.9145 45.6147 64.9354 45.7463C64.8013 45.7259 64.664 45.7152 64.5241 45.7152C63.0565 45.7152 61.8667 46.8834 61.8667 48.3243C61.8667 49.7653 63.0565 50.9334 64.5241 50.9334H73.6352Z" fill="#9EFFB4"/>
</g>
<defs>
<linearGradient id="paint0_linear_611_1985" x1="40" y1="1.7334" x2="40" y2="78.2667" gradientUnits="userSpaceOnUse">
<stop stop-color="#AAFFC7"/>
<stop offset="1" stop-color="#58D7FF"/>
</linearGradient>
</defs>
</svg>
