<svg width="82" height="82" viewBox="0 0 82 82" fill="none" xmlns="http://www.w3.org/2000/svg">
<g id="&#237;&#148;&#132;&#235;&#161;&#156;&#237;&#149;&#132; &#237;&#131;&#173;_1">
<circle id="Ellipse 28" cx="41" cy="41.0001" r="38.2667" fill="url(#paint0_linear_611_2064)"/>
<g id="Mask group">
<mask id="mask0_611_2064" style="mask-type:alpha" maskUnits="userSpaceOnUse" x="2" y="2" width="78" height="78">
<circle id="Ellipse 9" cx="41" cy="41.0001" r="38.2667" fill="#D6DCDC"/>
</mask>
<g mask="url(#mask0_611_2064)">
<g id="&#236;&#186;&#144;&#235;&#166;&#173;&#237;&#132;&#176;">
<path id="HAPIT" d="M13.6667 73.5815V25.8314C13.6667 19.4912 17.8275 15.1323 24.465 15.0332H49.0334C63.8934 15.0332 73.8001 23.751 73.8001 37.3232C73.8001 50.8953 63.8934 59.9103 49.0334 59.9103H35.4614V73.5815C35.4614 80.0208 31.2015 84.3797 24.465 84.3797C18.0257 84.3797 13.6667 80.0208 13.6667 73.5815Z" fill="#01CDEC"/>
<path id="Ellipse 24" d="M49.4662 34.8468C49.4662 39.4063 45.7701 43.1024 41.2107 43.1024C36.6513 43.1024 32.9551 39.4063 32.9551 34.8468C32.9551 30.2874 36.6513 26.5913 41.2107 26.5913C45.7701 26.5913 49.4662 30.2874 49.4662 34.8468Z" fill="#F5F5F5"/>
<circle id="Ellipse 26" cx="60.8175" cy="34.8468" r="8.25554" fill="#F5F5F5"/>
<path id="Ellipse 25" d="M48.4342 33.8147C48.4342 37.2343 45.6621 40.0064 42.2426 40.0064C38.823 40.0064 36.0509 37.2343 36.0509 33.8147C36.0509 30.3951 38.823 27.623 42.2426 27.623C45.6621 27.623 48.4342 30.3951 48.4342 33.8147Z" fill="#0F0E0E"/>
<path id="Ellipse 27" d="M68.0411 33.8147C68.0411 37.2343 65.269 40.0064 61.8494 40.0064C58.4299 40.0064 55.6578 37.2343 55.6578 33.8147C55.6578 30.3951 58.4299 27.623 61.8494 27.623C65.269 27.623 68.0411 30.3951 68.0411 33.8147Z" fill="#0F0E0E"/>
</g>
</g>
</g>
<path id="Union" fill-rule="evenodd" clip-rule="evenodd" d="M24.0055 14.1065C24.0782 13.7362 23.8369 13.3771 23.4666 13.3044C23.0963 13.2317 22.7371 13.473 22.6645 13.8433L21.8643 17.9205L18.8364 15.2788C18.552 15.0307 18.1204 15.0601 17.8723 15.3445C17.6242 15.6288 17.6536 16.0605 17.9379 16.3086L20.945 18.9322L17.1694 20.2246C16.8123 20.3469 16.622 20.7354 16.7442 21.0924C16.8664 21.4495 17.2549 21.6399 17.612 21.5177L21.4137 20.2163L20.6714 23.9982C20.5988 24.3685 20.8401 24.7277 21.2104 24.8004C21.5807 24.873 21.9399 24.6317 22.0125 24.2614L22.7495 20.5065L25.7358 23.112C26.0202 23.3601 26.4519 23.3307 26.7 23.0464C26.9481 22.762 26.9187 22.3303 26.6343 22.0822L23.6272 19.4586L27.4029 18.1662C27.76 18.044 27.9503 17.6555 27.8281 17.2984C27.7059 16.9413 27.3174 16.751 26.9603 16.8732L23.2106 18.1567L24.0055 14.1065Z" fill="#00A8C1"/>
<path id="Union_2" fill-rule="evenodd" clip-rule="evenodd" d="M75.3325 40.4744C75.4833 40.6348 75.4756 40.887 75.3152 41.0378L73.608 42.6436L75.9287 43.3422C76.1395 43.4057 76.2589 43.628 76.1955 43.8388C76.132 44.0496 75.9097 44.169 75.6989 44.1055L73.3935 43.4115L73.9232 45.6617C73.9736 45.876 73.8408 46.0905 73.6265 46.141C73.4123 46.1914 73.1977 46.0586 73.1472 45.8443L72.6139 43.5785L70.9183 45.1733C70.758 45.3241 70.5057 45.3164 70.3549 45.1561C70.2041 44.9957 70.2118 44.7435 70.3722 44.5927L72.0561 43.0088L69.919 42.3654C69.7082 42.302 69.5888 42.0797 69.6522 41.8689C69.7157 41.6581 69.938 41.5387 70.1488 41.6021L72.3013 42.2501L71.7643 39.9687C71.7138 39.7544 71.8466 39.5398 72.0609 39.4894C72.2752 39.439 72.4898 39.5718 72.5402 39.7861L73.0735 42.0519L74.7691 40.4572C74.9295 40.3063 75.1817 40.3141 75.3325 40.4744Z" fill="#00A8C1"/>
<path id="Union_3" fill-rule="evenodd" clip-rule="evenodd" d="M36.1377 67.01C36.3205 67.1326 36.3694 67.3802 36.2469 67.563L34.9421 69.51L37.3602 69.6719C37.5798 69.6866 37.7459 69.8765 37.7312 70.0962C37.7165 70.3158 37.5266 70.4819 37.3069 70.4672L34.9049 70.3065L35.9245 72.3811C36.0216 72.5787 35.9401 72.8176 35.7426 72.9147C35.545 73.0117 35.3062 72.9303 35.2091 72.7327L34.1824 70.6436L32.8865 72.5773C32.7639 72.7602 32.5164 72.8091 32.3335 72.6865C32.1506 72.564 32.1017 72.3164 32.2243 72.1335L33.5112 70.2132L31.2842 70.0642C31.0646 70.0495 30.8985 69.8595 30.9132 69.6399C30.9279 69.4203 31.1178 69.2541 31.3375 69.2688L33.5805 69.4189L32.5468 67.3154C32.4497 67.1178 32.5311 66.879 32.7287 66.7819C32.9262 66.6848 33.1651 66.7662 33.2622 66.9638L34.2888 69.0529L35.5847 67.1192C35.7072 66.9364 35.9548 66.8875 36.1377 67.01Z" fill="#00A8C1"/>
<g id="Group 2">
<path id="Polygon 3" d="M36.3945 60.1248C37.0795 60.2609 37.0651 61.2454 36.3764 61.3614L24.7375 63.3228C23.6659 63.5034 22.6637 62.7433 22.5486 61.6626L22.3534 59.8298C22.2187 58.565 23.349 57.5322 24.5966 57.7802L36.3945 60.1248Z" fill="#65EF9C"/>
<path id="Polygon 5" d="M34.9827 59.7523C34.3198 59.5327 33.8466 60.396 34.3883 60.8368L43.5441 68.2854C44.3872 68.9712 45.6339 68.8045 46.2672 67.9214L47.3413 66.4235C48.0825 65.3898 47.6089 63.9338 46.4015 63.5339L34.9827 59.7523Z" fill="#65EF9C"/>
<path id="Polygon 4" d="M36.0924 60.7689C36.7384 60.9699 37.2026 60.1484 36.697 59.6988L29.4212 53.2277C28.5682 52.4691 27.2421 52.6361 26.6039 53.5826L25.6619 54.9797C24.9556 56.0273 25.4589 57.4596 26.6653 57.835L36.0924 60.7689Z" fill="#65EF9C"/>
<path id="Polygon 6" d="M34.9276 60.4617C34.2664 60.3178 34.268 59.3742 34.9296 59.2326L44.4509 57.1938C45.5672 56.9548 46.6382 57.7544 46.7263 58.8926L46.8564 60.5725C46.9539 61.8323 45.8094 62.8297 44.5748 62.5611L34.9276 60.4617Z" fill="#65EF9C"/>
<rect id="Rectangle 74" x="34.4298" y="57.9092" width="3.14352" height="3.77222" rx="1.25741" transform="rotate(14.782 34.4298 57.9092)" fill="#46D681"/>
</g>
</g>
<defs>
<linearGradient id="paint0_linear_611_2064" x1="41" y1="2.7334" x2="41" y2="79.2667" gradientUnits="userSpaceOnUse">
<stop stop-color="#7CFCAF"/>
<stop offset="1" stop-color="#C6E6F0"/>
</linearGradient>
</defs>
</svg>
