<svg width="78" height="90" viewBox="0 0 78 90" fill="none" xmlns="http://www.w3.org/2000/svg">
<g id="&#236;&#186;&#144;&#235;&#166;&#173;&#237;&#132;&#176;">
<g id="HAPIT">
<path d="M0 75.944V14.0066C0 5.78254 5.39704 0.128499 14.0066 0H45.8748C65.1499 0 78 11.3081 78 28.9127C78 46.5173 65.1499 58.2109 45.8748 58.2109H28.2702V75.944C28.2702 84.2965 22.7447 89.9506 14.0066 89.9506C5.65404 89.9506 0 84.2965 0 75.944Z" fill="#01CDEC"/>
</g>
<path id="Ellipse 24" d="M46.4361 25.7003C46.4361 31.6143 41.6418 36.4087 35.7277 36.4087C29.8136 36.4087 25.0193 31.6143 25.0193 25.7003C25.0193 19.7862 29.8136 14.9919 35.7277 14.9919C41.6418 14.9919 46.4361 19.7862 46.4361 25.7003Z" fill="#F5F5F5"/>
<circle id="Ellipse 26" cx="61.1603" cy="25.7003" r="10.7084" fill="#F5F5F5"/>
<path id="Ellipse 25" d="M45.0978 24.3617C45.0978 28.7973 41.502 32.393 37.0665 32.393C32.6309 32.393 29.0352 28.7973 29.0352 24.3617C29.0352 19.9261 32.6309 16.3304 37.0665 16.3304C41.502 16.3304 45.0978 19.9261 45.0978 24.3617Z" fill="#0F0E0E"/>
<path id="Ellipse 27" d="M70.5301 24.3617C70.5301 28.7973 66.9344 32.393 62.4988 32.393C58.0633 32.393 54.4675 28.7973 54.4675 24.3617C54.4675 19.9261 58.0633 16.3304 62.4988 16.3304C66.9344 16.3304 70.5301 19.9261 70.5301 24.3617Z" fill="#0F0E0E"/>
</g>
</svg>
