<svg width="41" height="37" viewBox="0 0 41 37" fill="none" xmlns="http://www.w3.org/2000/svg">
<g id="friend">
<g id="Vector">
<path d="M25.7714 27.3334C25.3614 27.3334 25.0148 27.1918 24.7317 26.9087C24.4487 26.6256 24.3071 26.2791 24.3071 25.8691C24.3071 25.4591 24.4487 25.1125 24.7317 24.8295C25.0148 24.5464 25.3614 24.4048 25.7714 24.4048C26.1814 24.4048 26.5279 24.5464 26.811 24.8295C27.0941 25.1125 27.2357 25.4591 27.2357 25.8691C27.2357 26.2791 27.0941 26.6256 26.811 26.9087C26.5279 27.1918 26.1814 27.3334 25.7714 27.3334ZM32.8 27.3334C32.39 27.3334 32.0434 27.1918 31.7603 26.9087C31.4772 26.6256 31.3357 26.2791 31.3357 25.8691C31.3357 25.4591 31.4772 25.1125 31.7603 24.8295C32.0434 24.5464 32.39 24.4048 32.8 24.4048C33.21 24.4048 33.5565 24.5464 33.8396 24.8295C34.1227 25.1125 34.2643 25.4591 34.2643 25.8691C34.2643 26.2791 34.1227 26.6256 33.8396 26.9087C33.5565 27.1918 33.21 27.3334 32.8 27.3334ZM29.2857 34.0691C31.9019 34.0691 34.1178 33.1612 35.9335 31.3455C37.7493 29.5298 38.6571 27.3139 38.6571 24.6977C38.6571 24.2291 38.6278 23.7752 38.5693 23.3359C38.5107 22.8966 38.4033 22.472 38.2471 22.062C37.8371 22.1596 37.4271 22.2328 37.0171 22.2816C36.6071 22.3304 36.1776 22.3548 35.7285 22.3548C33.9519 22.3548 32.2728 21.9741 30.6914 21.2127C29.11 20.4512 27.7628 19.3872 26.65 18.0205C26.0252 19.5434 25.132 20.8661 23.9703 21.9887C22.8086 23.1114 21.4566 23.9558 19.9142 24.522V24.6977C19.9142 27.3139 20.8221 29.5298 22.6378 31.3455C24.4535 33.1612 26.6695 34.0691 29.2857 34.0691ZM29.2857 36.412C27.6652 36.412 26.1423 36.1045 24.7171 35.4895C23.2919 34.8745 22.0521 34.0398 20.9978 32.9855C19.9435 31.9312 19.1089 30.6915 18.4939 29.2662C17.8789 27.841 17.5714 26.3181 17.5714 24.6977C17.5714 23.0772 17.8789 21.5543 18.4939 20.1291C19.1089 18.7038 19.9435 17.4641 20.9978 16.4098C22.0521 15.3555 23.2919 14.5209 24.7171 13.9059C26.1423 13.2909 27.6652 12.9834 29.2857 12.9834C30.9062 12.9834 32.429 13.2909 33.8543 13.9059C35.2795 14.5209 36.5193 15.3555 37.5735 16.4098C38.6278 17.4641 39.4625 18.7038 40.0775 20.1291C40.6925 21.5543 41 23.0772 41 24.6977C41 26.3181 40.6925 27.841 40.0775 29.2662C39.4625 30.6915 38.6278 31.9312 37.5735 32.9855C36.5193 34.0398 35.2795 34.8745 33.8543 35.4895C32.429 36.1045 30.9062 36.412 29.2857 36.412ZM27.7043 15.4727C28.5243 16.8393 29.6371 17.9375 31.0428 18.7673C32.4485 19.5971 34.0104 20.0119 35.7285 20.0119C36.0019 20.0119 36.2654 19.9973 36.5193 19.968C36.7731 19.9387 37.0366 19.9046 37.31 19.8655C36.49 18.4988 35.3771 17.4006 33.9714 16.5709C32.5657 15.7411 31.0038 15.3262 29.2857 15.3262C29.0123 15.3262 28.7488 15.3409 28.495 15.3702C28.2412 15.3994 27.9776 15.4336 27.7043 15.4727ZM20.4121 21.7398C21.4078 21.1736 22.2766 20.4415 23.0185 19.5434C23.7604 18.6453 24.3169 17.6398 24.6878 16.5269C23.6921 17.0931 22.8233 17.8253 22.0814 18.7234C21.3395 19.6215 20.7831 20.6269 20.4121 21.7398Z" fill="#0E0F0E"/>
<path d="M9.10726 15.5904C9.37856 15.8617 9.71067 15.9973 10.1036 15.9973C10.4965 15.9973 10.8286 15.8617 11.0999 15.5904C11.3712 15.3191 11.5069 14.987 11.5069 14.5941C11.5069 14.2011 11.3712 13.869 11.0999 13.5977C10.8286 13.3264 10.4965 13.1908 10.1036 13.1908C9.71067 13.1908 9.37856 13.3264 9.10726 13.5977C8.83596 13.869 8.70031 14.2011 8.70031 14.5941C8.70031 14.987 8.83596 15.3191 9.10726 15.5904Z" fill="#0E0F0E"/>
<path d="M15.843 15.5904C16.1143 15.8617 16.4464 15.9973 16.8393 15.9973C17.2322 15.9973 17.5643 15.8617 17.8356 15.5904C18.1069 15.3191 18.2426 14.987 18.2426 14.5941C18.2426 14.2011 18.1069 13.869 17.8356 13.5977C17.5643 13.3264 17.2322 13.1908 16.8393 13.1908C16.4464 13.1908 16.1143 13.3264 15.843 13.5977C15.5717 13.869 15.436 14.2011 15.436 14.5941C15.436 14.987 15.5717 15.3191 15.843 15.5904Z" fill="#0E0F0E"/>
<path fill-rule="evenodd" clip-rule="evenodd" d="M16.2202 22.0584C15.3619 22.3211 14.4456 22.4524 13.4714 22.4524C10.9643 22.4524 8.84064 21.5824 7.10057 19.8423C5.36051 18.1023 4.49048 15.9786 4.49048 13.4714V13.3031C5.9686 12.7605 7.26429 11.9512 8.37755 10.8754C9.49082 9.79954 10.3468 8.53192 10.9455 7.07251C12.012 8.38223 13.3031 9.40195 14.8186 10.1316C16.3341 10.8614 17.9432 11.2262 19.6459 11.2262C20.0762 11.2262 20.4878 11.2028 20.8807 11.156C21.2737 11.1093 21.6666 11.0391 22.0595 10.9455C22.2092 11.3385 22.3121 11.7454 22.3682 12.1664C22.4041 12.4352 22.4285 12.7098 22.4414 12.9901C23.1218 12.5719 23.8421 12.2124 24.5953 11.9186C24.463 10.9361 24.2024 9.9943 23.8136 9.09323C23.2242 7.72737 22.4243 6.53926 21.414 5.52891C20.4036 4.51855 19.2155 3.71868 17.8497 3.1293C16.4838 2.53993 15.0244 2.24524 13.4714 2.24524C12.9288 2.24524 12.3909 2.28266 11.8577 2.3575C11.3244 2.43234 10.8146 2.54461 10.3281 2.69429C9.82293 1.85232 9.15403 1.19278 8.32142 0.715671C7.48881 0.238557 6.57668 0 5.58504 0C4.03208 0 2.713 0.5426 1.6278 1.6278C0.5426 2.713 0 4.03208 0 5.58504C0 6.59539 0.247912 7.51688 0.743736 8.34949C1.23956 9.1821 1.88974 9.84164 2.69429 10.3281C2.54461 10.8146 2.43234 11.3244 2.3575 11.8577C2.28266 12.3909 2.24524 12.9288 2.24524 13.4714C2.24524 15.0244 2.53993 16.4838 3.1293 17.8497C3.71868 19.2155 4.51855 20.4036 5.52891 21.414C6.53926 22.4243 7.72737 23.2242 9.09323 23.8136C10.4591 24.403 11.9185 24.6976 13.4714 24.6976C14.3439 24.6976 15.1868 24.6046 16.0002 24.4186C16.005 23.6132 16.0803 22.8245 16.2202 22.0584ZM15.1554 7.78818C13.8082 6.99299 12.7417 5.94053 11.9559 4.63081C12.2179 4.59339 12.4704 4.56065 12.7137 4.53258C12.9569 4.50451 13.2095 4.49048 13.4714 4.49048C15.118 4.49048 16.6148 4.88808 17.9619 5.68327C19.3091 6.47846 20.3756 7.53091 21.1614 8.84064C20.8995 8.87806 20.6469 8.9108 20.4036 8.93887C20.1604 8.96693 19.9078 8.98096 19.6459 8.98096C17.9993 8.98096 16.5025 8.58337 15.1554 7.78818ZM7.46543 8.53191C6.75443 9.39259 5.92182 10.0942 4.9676 10.6368C5.32309 9.57034 5.85634 8.60676 6.56733 7.74608C7.27832 6.88541 8.11093 6.18377 9.06516 5.64117C8.70966 6.70766 8.17642 7.67124 7.46543 8.53191ZM5.54294 5.54294C4.74775 6.33813 4.08821 7.23155 3.56432 8.2232C3.1714 7.90512 2.85333 7.52156 2.61009 7.07251C2.36686 6.62346 2.24524 6.12764 2.24524 5.58504C2.24524 4.64952 2.56799 3.85901 3.2135 3.2135C3.85901 2.56799 4.64952 2.24524 5.58504 2.24524C6.12764 2.24524 6.62346 2.36686 7.07251 2.61009C7.52156 2.85333 7.90512 3.1714 8.2232 3.56432C7.23155 4.08821 6.33813 4.74775 5.54294 5.54294Z" fill="#0E0F0E"/>
</g>
</g>
</svg>
