<svg width="41" height="37" viewBox="0 0 41 37" fill="none" xmlns="http://www.w3.org/2000/svg">
<g id="friend">
<g id="face_3">
<g id="Subtract">
<mask id="path-1-inside-1_571_253" fill="white">
<path fill-rule="evenodd" clip-rule="evenodd" d="M9.1073 15.5904C9.3786 15.8617 9.71071 15.9973 10.1036 15.9973C10.4965 15.9973 10.8287 15.8617 11.1 15.5904C11.3713 15.3191 11.5069 14.987 11.5069 14.5941C11.5069 14.2011 11.3713 13.869 11.1 13.5977C10.8287 13.3264 10.4965 13.1908 10.1036 13.1908C9.71071 13.1908 9.3786 13.3264 9.1073 13.5977C8.836 13.869 8.70035 14.2011 8.70035 14.5941C8.70035 14.987 8.836 15.3191 9.1073 15.5904ZM15.843 15.5904C16.1143 15.8617 16.4464 15.9973 16.8394 15.9973C17.2323 15.9973 17.5644 15.8617 17.8357 15.5904C18.107 15.3191 18.2426 14.987 18.2426 14.5941C18.2426 14.2011 18.107 13.869 17.8357 13.5977C17.5644 13.3264 17.2323 13.1908 16.8394 13.1908C16.4464 13.1908 16.1143 13.3264 15.843 13.5977C15.5717 13.869 15.4361 14.2011 15.4361 14.5941C15.4361 14.987 15.5717 15.3191 15.843 15.5904ZM15.6736 22.2061C14.9758 22.3703 14.2417 22.4524 13.4715 22.4524C10.9643 22.4524 8.84068 21.5824 7.10062 19.8423C5.36056 18.1023 4.49053 15.9786 4.49053 13.4714V13.3031C5.96864 12.7605 7.26434 11.9512 8.3776 10.8754C9.49087 9.79954 10.3469 8.53192 10.9456 7.07251C12.0121 8.38223 13.3031 9.40195 14.8186 10.1316C16.3342 10.8614 17.9433 11.2262 19.6459 11.2262C20.0762 11.2262 20.4879 11.2028 20.8808 11.156C21.2737 11.1093 21.6666 11.0391 22.0595 10.9455C22.2092 11.3385 22.3121 11.7454 22.3683 12.1664C22.3848 12.2905 22.3989 12.4159 22.4106 12.5425C22.9777 12.2052 23.5721 11.9061 24.1937 11.6454C24.3061 11.5982 24.4189 11.5527 24.5323 11.5089C24.3876 10.6735 24.1481 9.86832 23.8136 9.09323C23.2243 7.72737 22.4244 6.53926 21.414 5.52891C20.4037 4.51855 19.2156 3.71868 17.8497 3.1293C16.4839 2.53993 15.0244 2.24524 13.4715 2.24524C12.9289 2.24524 12.391 2.28266 11.8577 2.3575C11.3245 2.43234 10.8146 2.54461 10.3282 2.69429C9.82297 1.85232 9.15408 1.19278 8.32147 0.715671C7.48886 0.238557 6.57673 0 5.58508 0C4.03212 0 2.71305 0.5426 1.62785 1.6278C0.542646 2.713 4.57764e-05 4.03208 4.57764e-05 5.58504C4.57764e-05 6.59539 0.247958 7.51688 0.743782 8.34949C1.23961 9.1821 1.88979 9.84164 2.69433 10.3281C2.54465 10.8146 2.43239 11.3244 2.35755 11.8577C2.28271 12.3909 2.24529 12.9288 2.24529 13.4714C2.24529 15.0244 2.53997 16.4838 3.12935 17.8497C3.71873 19.2155 4.51859 20.4036 5.52895 21.414C6.53931 22.4243 7.72742 23.2242 9.09327 23.8136C10.4591 24.403 11.9185 24.6976 13.4715 24.6976C14.1256 24.6976 14.7631 24.6454 15.384 24.5408L15.4531 23.7532C15.5013 23.2277 15.5748 22.712 15.6736 22.2061ZM15.1554 7.78818C13.8083 6.99299 12.7418 5.94053 11.956 4.63081C12.2179 4.59339 12.4705 4.56065 12.7137 4.53258C12.957 4.50451 13.2095 4.49048 13.4715 4.49048C15.118 4.49048 16.6148 4.88808 17.962 5.68327C19.3091 6.47846 20.3756 7.53091 21.1614 8.84064C20.8995 8.87806 20.6469 8.9108 20.4037 8.93887C20.1604 8.96693 19.9078 8.98096 19.6459 8.98096C17.9994 8.98096 16.5026 8.58337 15.1554 7.78818ZM7.46547 8.53191C6.75448 9.39259 5.92187 10.0942 4.96764 10.6368C5.32314 9.57034 5.85638 8.60676 6.56738 7.74608C7.27837 6.88541 8.11098 6.18377 9.06521 5.64117C8.70971 6.70766 8.17647 7.67124 7.46547 8.53191ZM5.54298 5.54294C4.74779 6.33813 4.08825 7.23155 3.56437 8.2232C3.17145 7.90512 2.85337 7.52156 2.61014 7.07251C2.3669 6.62346 2.24529 6.12764 2.24529 5.58504C2.24529 4.64952 2.56804 3.85901 3.21355 3.2135C3.85905 2.56799 4.64957 2.24524 5.58508 2.24524C6.12768 2.24524 6.62351 2.36686 7.07255 2.61009C7.5216 2.85333 7.90517 3.1714 8.22324 3.56432C7.23159 4.08821 6.33817 4.74775 5.54298 5.54294Z"/>
</mask>
<path fill-rule="evenodd" clip-rule="evenodd" d="M9.1073 15.5904C9.3786 15.8617 9.71071 15.9973 10.1036 15.9973C10.4965 15.9973 10.8287 15.8617 11.1 15.5904C11.3713 15.3191 11.5069 14.987 11.5069 14.5941C11.5069 14.2011 11.3713 13.869 11.1 13.5977C10.8287 13.3264 10.4965 13.1908 10.1036 13.1908C9.71071 13.1908 9.3786 13.3264 9.1073 13.5977C8.836 13.869 8.70035 14.2011 8.70035 14.5941C8.70035 14.987 8.836 15.3191 9.1073 15.5904ZM15.843 15.5904C16.1143 15.8617 16.4464 15.9973 16.8394 15.9973C17.2323 15.9973 17.5644 15.8617 17.8357 15.5904C18.107 15.3191 18.2426 14.987 18.2426 14.5941C18.2426 14.2011 18.107 13.869 17.8357 13.5977C17.5644 13.3264 17.2323 13.1908 16.8394 13.1908C16.4464 13.1908 16.1143 13.3264 15.843 13.5977C15.5717 13.869 15.4361 14.2011 15.4361 14.5941C15.4361 14.987 15.5717 15.3191 15.843 15.5904ZM15.6736 22.2061C14.9758 22.3703 14.2417 22.4524 13.4715 22.4524C10.9643 22.4524 8.84068 21.5824 7.10062 19.8423C5.36056 18.1023 4.49053 15.9786 4.49053 13.4714V13.3031C5.96864 12.7605 7.26434 11.9512 8.3776 10.8754C9.49087 9.79954 10.3469 8.53192 10.9456 7.07251C12.0121 8.38223 13.3031 9.40195 14.8186 10.1316C16.3342 10.8614 17.9433 11.2262 19.6459 11.2262C20.0762 11.2262 20.4879 11.2028 20.8808 11.156C21.2737 11.1093 21.6666 11.0391 22.0595 10.9455C22.2092 11.3385 22.3121 11.7454 22.3683 12.1664C22.3848 12.2905 22.3989 12.4159 22.4106 12.5425C22.9777 12.2052 23.5721 11.9061 24.1937 11.6454C24.3061 11.5982 24.4189 11.5527 24.5323 11.5089C24.3876 10.6735 24.1481 9.86832 23.8136 9.09323C23.2243 7.72737 22.4244 6.53926 21.414 5.52891C20.4037 4.51855 19.2156 3.71868 17.8497 3.1293C16.4839 2.53993 15.0244 2.24524 13.4715 2.24524C12.9289 2.24524 12.391 2.28266 11.8577 2.3575C11.3245 2.43234 10.8146 2.54461 10.3282 2.69429C9.82297 1.85232 9.15408 1.19278 8.32147 0.715671C7.48886 0.238557 6.57673 0 5.58508 0C4.03212 0 2.71305 0.5426 1.62785 1.6278C0.542646 2.713 4.57764e-05 4.03208 4.57764e-05 5.58504C4.57764e-05 6.59539 0.247958 7.51688 0.743782 8.34949C1.23961 9.1821 1.88979 9.84164 2.69433 10.3281C2.54465 10.8146 2.43239 11.3244 2.35755 11.8577C2.28271 12.3909 2.24529 12.9288 2.24529 13.4714C2.24529 15.0244 2.53997 16.4838 3.12935 17.8497C3.71873 19.2155 4.51859 20.4036 5.52895 21.414C6.53931 22.4243 7.72742 23.2242 9.09327 23.8136C10.4591 24.403 11.9185 24.6976 13.4715 24.6976C14.1256 24.6976 14.7631 24.6454 15.384 24.5408L15.4531 23.7532C15.5013 23.2277 15.5748 22.712 15.6736 22.2061ZM15.1554 7.78818C13.8083 6.99299 12.7418 5.94053 11.956 4.63081C12.2179 4.59339 12.4705 4.56065 12.7137 4.53258C12.957 4.50451 13.2095 4.49048 13.4715 4.49048C15.118 4.49048 16.6148 4.88808 17.962 5.68327C19.3091 6.47846 20.3756 7.53091 21.1614 8.84064C20.8995 8.87806 20.6469 8.9108 20.4037 8.93887C20.1604 8.96693 19.9078 8.98096 19.6459 8.98096C17.9994 8.98096 16.5026 8.58337 15.1554 7.78818ZM7.46547 8.53191C6.75448 9.39259 5.92187 10.0942 4.96764 10.6368C5.32314 9.57034 5.85638 8.60676 6.56738 7.74608C7.27837 6.88541 8.11098 6.18377 9.06521 5.64117C8.70971 6.70766 8.17647 7.67124 7.46547 8.53191ZM5.54298 5.54294C4.74779 6.33813 4.08825 7.23155 3.56437 8.2232C3.17145 7.90512 2.85337 7.52156 2.61014 7.07251C2.3669 6.62346 2.24529 6.12764 2.24529 5.58504C2.24529 4.64952 2.56804 3.85901 3.21355 3.2135C3.85905 2.56799 4.64957 2.24524 5.58508 2.24524C6.12768 2.24524 6.62351 2.36686 7.07255 2.61009C7.5216 2.85333 7.90517 3.1714 8.22324 3.56432C7.23159 4.08821 6.33817 4.74775 5.54298 5.54294Z" fill="#0E0F0E"/>
<path d="M11.1 15.5904L11.1176 15.6081L11.1 15.5904ZM11.1 13.5977L11.0823 13.6154L11.1 13.5977ZM9.1073 13.5977L9.12498 13.6154L9.1073 13.5977ZM15.843 15.5904L15.8253 15.6081L15.843 15.5904ZM17.8357 15.5904L17.8534 15.6081L17.8357 15.5904ZM17.8357 13.5977L17.8534 13.5801L17.8357 13.5977ZM15.843 13.5977L15.8607 13.6154L15.843 13.5977ZM15.6736 22.2061L15.6981 22.2109L15.7056 22.1729L15.6679 22.1817L15.6736 22.2061ZM7.10062 19.8423L7.1183 19.8246L7.10062 19.8423ZM4.49053 13.3031L4.48191 13.2796L4.46553 13.2856V13.3031H4.49053ZM10.9456 7.07251L10.965 7.05672L10.9384 7.02411L10.9225 7.06302L10.9456 7.07251ZM14.8186 10.1316L14.8078 10.1542L14.8186 10.1316ZM22.0595 10.9455L22.0829 10.9366L22.0751 10.9161L22.0537 10.9212L22.0595 10.9455ZM22.3683 12.1664L22.3435 12.1697L22.3683 12.1664ZM22.4106 12.5425L22.3857 12.5448L22.3893 12.5842L22.4234 12.564L22.4106 12.5425ZM24.1937 11.6454L24.184 11.6223H24.184L24.1937 11.6454ZM24.5323 11.5089L24.5413 11.5322L24.5604 11.5248L24.5569 11.5046L24.5323 11.5089ZM23.8136 9.09323L23.7907 9.10313L23.8136 9.09323ZM21.414 5.52891L21.3964 5.54658L21.414 5.52891ZM11.8577 2.3575L11.8542 2.33275L11.8577 2.3575ZM10.3282 2.69429L10.3067 2.70715L10.3168 2.72394L10.3355 2.71818L10.3282 2.69429ZM8.32147 0.715671L8.30904 0.737362L8.32147 0.715671ZM1.62785 1.6278L1.64552 1.64548L1.62785 1.6278ZM0.743782 8.34949L0.765262 8.3367L0.743782 8.34949ZM2.69433 10.3281L2.71823 10.3355L2.72397 10.3168L2.70727 10.3067L2.69433 10.3281ZM2.35755 11.8577L2.33279 11.8542L2.35755 11.8577ZM5.52895 21.414L5.54663 21.3963L5.52895 21.414ZM9.09327 23.8136L9.10318 23.7906L9.09327 23.8136ZM15.384 24.5408L15.3881 24.5655L15.4072 24.5623L15.4089 24.543L15.384 24.5408ZM15.4531 23.7532L15.4282 23.7509L15.4282 23.751L15.4531 23.7532ZM11.956 4.63081L11.9524 4.60606L11.9151 4.61139L11.9345 4.64367L11.956 4.63081ZM15.1554 7.78818L15.1427 7.80971L15.1554 7.78818ZM17.962 5.68327L17.9747 5.66174L17.962 5.68327ZM21.1614 8.84064L21.165 8.86538L21.2022 8.86006L21.1829 8.82777L21.1614 8.84064ZM4.96764 10.6368L4.94392 10.6289L4.9233 10.6908L4.98 10.6586L4.96764 10.6368ZM7.46547 8.53191L7.4462 8.51599L7.46547 8.53191ZM6.56738 7.74608L6.58665 7.762L6.56738 7.74608ZM9.06521 5.64117L9.08892 5.64907L9.10955 5.58719L9.05285 5.61944L9.06521 5.64117ZM3.56437 8.2232L3.54864 8.24263L3.57227 8.26176L3.58647 8.23487L3.56437 8.2232ZM5.54298 5.54294L5.56066 5.56062L5.54298 5.54294ZM2.61014 7.07251L2.58816 7.08442L2.61014 7.07251ZM3.21355 3.2135L3.19587 3.19582L3.21355 3.2135ZM7.07255 2.61009L7.08446 2.58811L7.07255 2.61009ZM8.22324 3.56432L8.23492 3.58642L8.2618 3.57222L8.24267 3.54859L8.22324 3.56432ZM10.1036 15.9723C9.71716 15.9723 9.39147 15.8392 9.12498 15.5727L9.08963 15.6081C9.36574 15.8842 9.70426 16.0223 10.1036 16.0223V15.9723ZM11.0823 15.5727C10.8158 15.8392 10.4901 15.9723 10.1036 15.9723V16.0223C10.503 16.0223 10.8415 15.8842 11.1176 15.6081L11.0823 15.5727ZM11.4819 14.5941C11.4819 14.9805 11.3488 15.3062 11.0823 15.5727L11.1176 15.6081C11.3937 15.332 11.5319 14.9934 11.5319 14.5941H11.4819ZM11.0823 13.6154C11.3488 13.8819 11.4819 14.2076 11.4819 14.5941H11.5319C11.5319 14.1947 11.3937 13.8562 11.1176 13.5801L11.0823 13.6154ZM10.1036 13.2158C10.4901 13.2158 10.8158 13.3489 11.0823 13.6154L11.1176 13.5801C10.8415 13.3039 10.503 13.1658 10.1036 13.1658V13.2158ZM9.12498 13.6154C9.39147 13.3489 9.71716 13.2158 10.1036 13.2158V13.1658C9.70426 13.1658 9.36574 13.3039 9.08963 13.5801L9.12498 13.6154ZM8.72535 14.5941C8.72535 14.2076 8.8585 13.8819 9.12498 13.6154L9.08963 13.5801C8.81351 13.8562 8.67535 14.1947 8.67535 14.5941H8.72535ZM9.12498 15.5727C8.8585 15.3062 8.72535 14.9805 8.72535 14.5941H8.67535C8.67535 14.9934 8.81351 15.332 9.08963 15.6081L9.12498 15.5727ZM16.8394 15.9723C16.4529 15.9723 16.1272 15.8392 15.8607 15.5727L15.8253 15.6081C16.1015 15.8842 16.44 16.0223 16.8394 16.0223V15.9723ZM17.818 15.5727C17.5515 15.8392 17.2258 15.9723 16.8394 15.9723V16.0223C17.2387 16.0223 17.5772 15.8842 17.8534 15.6081L17.818 15.5727ZM18.2176 14.5941C18.2176 14.9805 18.0845 15.3062 17.818 15.5727L17.8534 15.6081C18.1295 15.332 18.2676 14.9934 18.2676 14.5941H18.2176ZM17.818 13.6154C18.0845 13.8819 18.2176 14.2076 18.2176 14.5941H18.2676C18.2676 14.1947 18.1295 13.8562 17.8534 13.5801L17.818 13.6154ZM16.8394 13.2158C17.2258 13.2158 17.5515 13.3489 17.818 13.6154L17.8534 13.5801C17.5772 13.3039 17.2387 13.1658 16.8394 13.1658V13.2158ZM15.8607 13.6154C16.1272 13.3489 16.4529 13.2158 16.8394 13.2158V13.1658C16.44 13.1658 16.1015 13.3039 15.8253 13.5801L15.8607 13.6154ZM15.4611 14.5941C15.4611 14.2076 15.5942 13.8819 15.8607 13.6154L15.8253 13.5801C15.5492 13.8562 15.4111 14.1947 15.4111 14.5941H15.4611ZM15.8607 15.5727C15.5942 15.3062 15.4611 14.9805 15.4611 14.5941H15.4111C15.4111 14.9934 15.5492 15.332 15.8253 15.6081L15.8607 15.5727ZM13.4715 22.4774C14.2435 22.4774 14.9795 22.3951 15.6793 22.2304L15.6679 22.1817C14.9721 22.3455 14.2399 22.4274 13.4715 22.4274V22.4774ZM7.08294 19.86C8.82779 21.6048 10.9578 22.4774 13.4715 22.4774V22.4274C10.9708 22.4274 8.85357 21.5599 7.1183 19.8246L7.08294 19.86ZM4.46553 13.4714C4.46553 15.9851 5.33809 18.1151 7.08294 19.86L7.1183 19.8246C5.38302 18.0894 4.51553 15.9721 4.51553 13.4714H4.46553ZM4.46553 13.3031V13.4714H4.51553V13.3031H4.46553ZM8.36023 10.8574C7.24951 11.9308 5.95682 12.7382 4.48191 13.2796L4.49914 13.3265C5.98047 12.7827 7.27916 11.9717 8.39497 10.8934L8.36023 10.8574ZM10.9225 7.06302C10.325 8.51929 9.47096 9.78401 8.36023 10.8574L8.39497 10.8934C9.51077 9.81507 10.3687 8.54454 10.9687 7.082L10.9225 7.06302ZM14.8295 10.1091C13.3173 9.38102 12.0292 8.36361 10.965 7.05672L10.9262 7.08829C11.995 8.40085 13.2889 9.42287 14.8078 10.1542L14.8295 10.1091ZM19.6459 11.2012C17.947 11.2012 16.3416 10.8372 14.8295 10.1091L14.8078 10.1542C16.3268 10.8855 17.9396 11.2512 19.6459 11.2512V11.2012ZM20.8778 11.1312C20.486 11.1779 20.0753 11.2012 19.6459 11.2012V11.2512C20.0771 11.2512 20.4898 11.2278 20.8837 11.1809L20.8778 11.1312ZM22.0537 10.9212C21.6617 11.0146 21.2698 11.0846 20.8778 11.1312L20.8837 11.1809C21.2776 11.134 21.6715 11.0636 22.0653 10.9699L22.0537 10.9212ZM22.393 12.1631C22.3367 11.7402 22.2333 11.3314 22.0829 10.9366L22.0362 10.9544C22.1852 11.3455 22.2876 11.7506 22.3435 12.1697L22.393 12.1631ZM22.4355 12.5402C22.4238 12.4133 22.4096 12.2876 22.393 12.1631L22.3435 12.1697C22.36 12.2935 22.3741 12.4185 22.3857 12.5448L22.4355 12.5402ZM22.4234 12.564C22.9895 12.2273 23.5828 11.9287 24.2034 11.6684L24.184 11.6223C23.5614 11.8835 22.966 12.1831 22.3978 12.521L22.4234 12.564ZM24.2034 11.6684C24.3155 11.6214 24.4282 11.576 24.5413 11.5322L24.5233 11.4856C24.4097 11.5295 24.2966 11.5751 24.184 11.6223L24.2034 11.6684ZM23.7907 9.10313C24.1244 9.87641 24.3633 10.6797 24.5077 11.5132L24.5569 11.5046C24.4119 10.6673 24.1718 9.86023 23.8366 9.08332L23.7907 9.10313ZM21.3964 5.54658C22.4044 6.55462 23.2025 7.74006 23.7907 9.10313L23.8366 9.08332C23.246 7.71469 22.4444 6.52391 21.4317 5.51123L21.3964 5.54658ZM17.8398 3.15226C19.2029 3.74044 20.3883 4.53855 21.3964 5.54658L21.4317 5.51123C20.419 4.49854 19.2283 3.69693 17.8596 3.10635L17.8398 3.15226ZM13.4715 2.27024C15.0212 2.27024 16.4772 2.56429 17.8398 3.15226L17.8596 3.10635C16.4905 2.51557 15.0277 2.22024 13.4715 2.22024V2.27024ZM11.8612 2.38226C12.3933 2.30758 12.93 2.27024 13.4715 2.27024V2.22024C12.9277 2.22024 12.3887 2.25774 11.8542 2.33275L11.8612 2.38226ZM10.3355 2.71818C10.8206 2.56891 11.3292 2.45693 11.8612 2.38226L11.8542 2.33275C11.3198 2.40776 10.8086 2.5203 10.3208 2.67039L10.3355 2.71818ZM8.30904 0.737362C9.13785 1.2123 9.80368 1.86876 10.3067 2.70715L10.3496 2.68143C9.84227 1.83589 9.17031 1.17327 8.3339 0.693979L8.30904 0.737362ZM5.58508 0.025C6.57252 0.025 7.48034 0.26249 8.30904 0.737362L8.3339 0.693979C7.49738 0.214623 6.58094 -0.025 5.58508 -0.025V0.025ZM1.64552 1.64548C2.72597 0.565028 4.03867 0.025 5.58508 0.025V-0.025C4.02558 -0.025 2.70012 0.520171 1.61017 1.61012L1.64552 1.64548ZM0.0250458 5.58504C0.0250458 4.03862 0.565074 2.72593 1.64552 1.64548L1.61017 1.61012C0.520217 2.70007 -0.0249542 4.02554 -0.0249542 5.58504H0.0250458ZM0.765262 8.3367C0.271842 7.50813 0.0250458 6.59109 0.0250458 5.58504H-0.0249542C-0.0249542 6.5997 0.224074 7.52563 0.722302 8.36228L0.765262 8.3367ZM2.70727 10.3067C1.90635 9.82244 1.25905 9.1659 0.765262 8.3367L0.722302 8.36228C1.22016 9.1983 1.87323 9.86084 2.6814 10.3495L2.70727 10.3067ZM2.38231 11.8612C2.45697 11.3291 2.56896 10.8206 2.71823 10.3355L2.67044 10.3208C2.52035 10.8086 2.40781 11.3197 2.33279 11.8542L2.38231 11.8612ZM2.27029 13.4714C2.27029 12.93 2.30763 12.3932 2.38231 11.8612L2.33279 11.8542C2.25779 12.3886 2.22029 12.9277 2.22029 13.4714H2.27029ZM3.1523 17.8398C2.56434 16.4772 2.27029 15.0211 2.27029 13.4714H2.22029C2.22029 15.0277 2.51561 16.4905 3.1064 17.8596L3.1523 17.8398ZM5.54663 21.3963C4.5386 20.3883 3.74048 19.2028 3.1523 17.8398L3.1064 17.8596C3.69697 19.2282 4.49859 20.419 5.51127 21.4317L5.54663 21.3963ZM9.10318 23.7906C7.7401 23.2025 6.55466 22.4043 5.54663 21.3963L5.51127 21.4317C6.52396 22.4443 7.71473 23.246 9.08337 23.8365L9.10318 23.7906ZM13.4715 24.6726C11.9218 24.6726 10.4658 24.3786 9.10318 23.7906L9.08337 23.8365C10.4525 24.4273 11.9153 24.7226 13.4715 24.7226V24.6726ZM15.3798 24.5162C14.7604 24.6205 14.1242 24.6726 13.4715 24.6726V24.7226C14.1269 24.7226 14.7658 24.6703 15.3881 24.5655L15.3798 24.5162ZM15.4089 24.543L15.478 23.7554L15.4282 23.751L15.3591 24.5386L15.4089 24.543ZM15.478 23.7555C15.5261 23.2308 15.5995 22.7159 15.6981 22.2109L15.6491 22.2013C15.5501 22.708 15.4765 23.2246 15.4282 23.7509L15.478 23.7555ZM11.9345 4.64367C12.7225 5.95706 13.7921 7.01245 15.1427 7.80971L15.1681 7.76665C13.8245 6.97352 12.761 5.92401 11.9774 4.61795L11.9345 4.64367ZM12.7109 4.50774C12.4674 4.53584 12.2146 4.56861 11.9524 4.60606L11.9595 4.65556C12.2212 4.61817 12.4736 4.58545 12.7166 4.55742L12.7109 4.50774ZM13.4715 4.46548C13.2087 4.46548 12.9551 4.47956 12.7109 4.50774L12.7166 4.55742C12.9588 4.52947 13.2104 4.51548 13.4715 4.51548V4.46548ZM17.9747 5.66174C16.6235 4.86415 15.1222 4.46548 13.4715 4.46548V4.51548C15.1138 4.51548 16.6062 4.912 17.9493 5.70479L17.9747 5.66174ZM21.1829 8.82777C20.3948 7.51439 19.3253 6.45899 17.9747 5.66174L17.9493 5.70479C19.2929 6.49792 20.3564 7.54743 21.14 8.8535L21.1829 8.82777ZM20.4065 8.9637C20.65 8.93561 20.9028 8.90283 21.165 8.86538L21.1579 8.81589C20.8962 8.85328 20.6438 8.88599 20.4008 8.91403L20.4065 8.9637ZM19.6459 9.00596C19.9087 9.00596 20.1623 8.99188 20.4065 8.9637L20.4008 8.91403C20.1586 8.94198 19.907 8.95596 19.6459 8.95596V9.00596ZM15.1427 7.80971C16.4939 8.60729 17.9952 9.00596 19.6459 9.00596V8.95596C18.0036 8.95596 16.5112 8.55945 15.1681 7.76665L15.1427 7.80971ZM4.98 10.6586C5.93691 10.1144 6.77185 9.41081 7.48475 8.54784L7.4462 8.51599C6.7371 9.37437 5.90683 10.074 4.95528 10.6151L4.98 10.6586ZM6.5481 7.73016C5.83513 8.59323 5.30039 9.55953 4.94392 10.6289L4.99136 10.6447C5.34589 9.58115 5.87763 8.62029 6.58665 7.762L6.5481 7.73016ZM9.05285 5.61944C8.09594 6.16356 7.26099 6.86718 6.5481 7.73016L6.58665 7.762C7.29574 6.90363 8.12602 6.20397 9.07756 5.6629L9.05285 5.61944ZM7.48475 8.54784C8.19772 7.68477 8.73246 6.71846 9.08892 5.64907L9.04149 5.63326C8.68696 6.69685 8.15521 7.65771 7.4462 8.51599L7.48475 8.54784ZM3.58647 8.23487C4.10919 7.24544 4.76723 6.35404 5.56066 5.56062L5.52531 5.52526C4.72835 6.32221 4.06732 7.21765 3.54226 8.21152L3.58647 8.23487ZM2.58816 7.08442C2.83294 7.53633 3.15313 7.92246 3.54864 8.24263L3.5801 8.20376C3.18976 7.88778 2.8738 7.50678 2.63212 7.0606L2.58816 7.08442ZM2.22029 5.58504C2.22029 6.13153 2.34282 6.63148 2.58816 7.08442L2.63212 7.0606C2.39099 6.61544 2.27029 6.12375 2.27029 5.58504H2.22029ZM3.19587 3.19582C2.54555 3.84615 2.22029 4.64307 2.22029 5.58504H2.27029C2.27029 4.65597 2.59053 3.87187 3.23122 3.23118L3.19587 3.19582ZM5.58508 2.22024C4.64312 2.22024 3.84619 2.5455 3.19587 3.19582L3.23122 3.23118C3.87191 2.59049 4.65601 2.27024 5.58508 2.27024V2.22024ZM7.08446 2.58811C6.63153 2.34277 6.13157 2.22024 5.58508 2.22024V2.27024C6.12379 2.27024 6.61548 2.39094 7.06065 2.63207L7.08446 2.58811ZM8.24267 3.54859C7.9225 3.15309 7.53637 2.8329 7.08446 2.58811L7.06065 2.63207C7.50683 2.87376 7.88783 3.18972 8.20381 3.58005L8.24267 3.54859ZM5.56066 5.56062C6.35409 4.76719 7.24549 4.10914 8.23492 3.58642L8.21156 3.54222C7.2177 4.06728 6.32226 4.72831 5.52531 5.52526L5.56066 5.56062Z" fill="#0E0F0E" mask="url(#path-1-inside-1_571_253)"/>
</g>
</g>
<g id="face">
<path id="face_2" d="M38.2588 22.0575L38.2549 22.0473L38.2442 22.0498C37.8347 22.1473 37.4252 22.2205 37.0157 22.2692C36.6062 22.318 36.1772 22.3423 35.7286 22.3423C33.9537 22.3423 32.2766 21.962 30.6968 21.2014C29.1171 20.4408 27.7714 19.3779 26.6597 18.0127L26.6464 17.9963L26.6384 18.0158C26.0143 19.5371 25.122 20.8584 23.9616 21.9798C22.8013 23.1012 21.4507 23.9446 19.9099 24.5102L19.9018 24.5133V24.522V24.6977C19.9018 27.3171 20.8109 29.5363 22.629 31.3544C24.4471 33.1725 26.6663 34.0816 29.2857 34.0816C31.9051 34.0816 34.1243 33.1725 35.9424 31.3544C37.7605 29.5363 38.6696 27.3171 38.6696 24.6977C38.6696 24.2286 38.6403 23.7741 38.5817 23.3343C38.523 22.894 38.4154 22.4684 38.2588 22.0575ZM27.7025 15.4603L27.6839 15.463L27.6935 15.4791C28.5146 16.8476 29.629 17.9473 31.0365 18.7781C32.4442 19.6091 34.0083 20.0245 35.7286 20.0245C36.0023 20.0245 36.2664 20.0098 36.5207 19.9805C36.7746 19.9512 37.0383 19.917 37.3118 19.8779L37.3304 19.8753L37.3207 19.8591C36.4996 18.4906 35.3852 17.3909 33.9778 16.5601C32.57 15.7292 31.0059 15.3138 29.2857 15.3138C29.0119 15.3138 28.7479 15.3284 28.4935 15.3578C28.2396 15.3871 27.9759 15.4213 27.7025 15.4603ZM20.4003 21.7359L20.3899 21.7668L20.4183 21.7507C21.4153 21.1837 22.2853 20.4506 23.0282 19.5514C23.7711 18.6521 24.3283 17.6452 24.6997 16.5309L24.71 16.5L24.6817 16.5161C23.6846 17.0831 22.8146 17.8162 22.0718 18.7154C21.3289 19.6147 20.7717 20.6216 20.4003 21.7359ZM25.7714 27.3209C25.3646 27.3209 25.0213 27.1806 24.7406 26.8999C24.4599 26.6192 24.3196 26.2759 24.3196 25.8691C24.3196 25.4624 24.4599 25.119 24.7406 24.8383C25.0213 24.5576 25.3646 24.4173 25.7714 24.4173C26.1782 24.4173 26.5215 24.5576 26.8022 24.8383C27.0829 25.119 27.2232 25.4624 27.2232 25.8691C27.2232 26.2759 27.0829 26.6192 26.8022 26.8999C26.5215 27.1806 26.1782 27.3209 25.7714 27.3209ZM32.8 27.3209C32.3932 27.3209 32.0499 27.1806 31.7692 26.8999C31.4885 26.6192 31.3482 26.2759 31.3482 25.8691C31.3482 25.4624 31.4885 25.119 31.7692 24.8383C32.0499 24.5576 32.3932 24.4173 32.8 24.4173C33.2068 24.4173 33.5501 24.5576 33.8308 24.8383C34.1115 25.119 34.2518 25.4624 34.2518 25.8691C34.2518 26.2759 34.1115 26.6192 33.8308 26.8999C33.5501 27.1806 33.2068 27.3209 32.8 27.3209ZM29.2857 36.3995C27.6668 36.3995 26.1457 36.0923 24.7221 35.478C23.2982 34.8636 22.0598 34.0299 21.0067 32.9767C19.9535 31.9236 19.1198 30.6852 18.5054 29.2613C17.8911 27.8377 17.5839 26.3165 17.5839 24.6977C17.5839 23.0788 17.8911 21.5577 18.5054 20.1341C19.1198 18.7102 19.9535 17.4718 21.0067 16.4187C22.0598 15.3655 23.2982 14.5318 24.7221 13.9174C26.1457 13.3031 27.6668 12.9959 29.2857 12.9959C30.9045 12.9959 32.4257 13.3031 33.8493 13.9174C35.2732 14.5318 36.5116 15.3655 37.5647 16.4187C38.6178 17.4718 39.4516 18.7102 40.066 20.1341C40.6803 21.5577 40.9875 23.0788 40.9875 24.6977C40.9875 26.3165 40.6803 27.8377 40.066 29.2613C39.4516 30.6852 38.6178 31.9236 37.5647 32.9767C36.5116 34.0299 35.2732 34.8636 33.8493 35.478C32.4257 36.0923 30.9045 36.3995 29.2857 36.3995Z" fill="#0E0F0E" stroke="#0E0F0E" stroke-width="0.025"/>
</g>
</g>
</svg>
