<svg width="41" height="37" viewBox="0 0 41 37" fill="none" xmlns="http://www.w3.org/2000/svg">
<g id="friend">
<g id="face_3">
<path id="Subtract" fill-rule="evenodd" clip-rule="evenodd" d="M9.1073 15.5904C9.3786 15.8617 9.71071 15.9973 10.1036 15.9973C10.4965 15.9973 10.8287 15.8617 11.1 15.5904C11.3713 15.3191 11.5069 14.987 11.5069 14.5941C11.5069 14.2011 11.3713 13.869 11.1 13.5977C10.8287 13.3264 10.4965 13.1908 10.1036 13.1908C9.71071 13.1908 9.3786 13.3264 9.1073 13.5977C8.836 13.869 8.70035 14.2011 8.70035 14.5941C8.70035 14.987 8.836 15.3191 9.1073 15.5904ZM15.843 15.5904C16.1143 15.8617 16.4464 15.9973 16.8394 15.9973C17.2323 15.9973 17.5644 15.8617 17.8357 15.5904C18.107 15.3191 18.2426 14.987 18.2426 14.5941C18.2426 14.2011 18.107 13.869 17.8357 13.5977C17.5644 13.3264 17.2323 13.1908 16.8394 13.1908C16.4464 13.1908 16.1143 13.3264 15.843 13.5977C15.5717 13.869 15.4361 14.2011 15.4361 14.5941C15.4361 14.987 15.5717 15.3191 15.843 15.5904ZM15.6736 22.2061C14.9758 22.3703 14.2417 22.4524 13.4715 22.4524C10.9643 22.4524 8.84068 21.5824 7.10062 19.8423C5.36056 18.1023 4.49053 15.9786 4.49053 13.4714V13.3031C5.96864 12.7605 7.26434 11.9512 8.3776 10.8754C9.49087 9.79954 10.3469 8.53192 10.9456 7.07251C12.0121 8.38223 13.3031 9.40195 14.8186 10.1316C16.3342 10.8614 17.9433 11.2262 19.6459 11.2262C20.0762 11.2262 20.4879 11.2028 20.8808 11.156C21.2737 11.1093 21.6666 11.0391 22.0595 10.9455C22.2092 11.3385 22.3121 11.7454 22.3683 12.1664C22.3848 12.2905 22.3989 12.4159 22.4106 12.5425C22.9777 12.2052 23.5721 11.9061 24.1937 11.6454C24.3061 11.5982 24.4189 11.5527 24.5323 11.5089C24.3876 10.6735 24.1481 9.86832 23.8136 9.09323C23.2243 7.72737 22.4244 6.53926 21.414 5.52891C20.4037 4.51855 19.2156 3.71868 17.8497 3.1293C16.4839 2.53993 15.0245 2.24524 13.4715 2.24524C12.9289 2.24524 12.391 2.28266 11.8577 2.3575C11.3245 2.43234 10.8146 2.54461 10.3282 2.69429C9.82297 1.85232 9.15408 1.19278 8.32147 0.715671C7.48886 0.238557 6.57673 0 5.58508 0C4.03212 0 2.71305 0.5426 1.62785 1.6278C0.542646 2.713 4.57764e-05 4.03208 4.57764e-05 5.58504C4.57764e-05 6.59539 0.247958 7.51688 0.743782 8.34949C1.23961 9.1821 1.88979 9.84164 2.69433 10.3281C2.54465 10.8146 2.43239 11.3244 2.35755 11.8577C2.28271 12.3909 2.24529 12.9288 2.24529 13.4714C2.24529 15.0244 2.53997 16.4838 3.12935 17.8497C3.71873 19.2155 4.51859 20.4036 5.52895 21.414C6.53931 22.4243 7.72742 23.2242 9.09327 23.8136C10.4591 24.403 11.9185 24.6976 13.4715 24.6976C14.1256 24.6976 14.7631 24.6454 15.384 24.5408L15.4531 23.7532C15.5013 23.2277 15.5748 22.712 15.6736 22.2061Z" fill="#01CDEC"/>
</g>
<g id="face">
<g id="face_2">
<path d="M25.7714 27.3334C25.3614 27.3334 25.0149 27.1919 24.7318 26.9088C24.4487 26.6257 24.3071 26.2791 24.3071 25.8691C24.3071 25.4591 24.4487 25.1126 24.7318 24.8295C25.0149 24.5464 25.3614 24.4048 25.7714 24.4048C26.1814 24.4048 26.528 24.5464 26.8111 24.8295C27.0941 25.1126 27.2357 25.4591 27.2357 25.8691C27.2357 26.2791 27.0941 26.6257 26.8111 26.9088C26.528 27.1919 26.1814 27.3334 25.7714 27.3334ZM32.8 27.3334C32.39 27.3334 32.0434 27.1919 31.7603 26.9088C31.4772 26.6257 31.3357 26.2791 31.3357 25.8691C31.3357 25.4591 31.4772 25.1126 31.7603 24.8295C32.0434 24.5464 32.39 24.4048 32.8 24.4048C33.21 24.4048 33.5565 24.5464 33.8396 24.8295C34.1227 25.1126 34.2643 25.4591 34.2643 25.8691C34.2643 26.2791 34.1227 26.6257 33.8396 26.9088C33.5565 27.1919 33.21 27.3334 32.8 27.3334ZM29.2857 34.0691C31.9019 34.0691 34.1178 33.1613 35.9336 31.3456C37.7493 29.5298 38.6571 27.3139 38.6571 24.6977C38.6571 24.2291 38.6279 23.7752 38.5693 23.3359C38.5107 22.8966 38.4033 22.472 38.2471 22.062C37.8371 22.1596 37.4271 22.2328 37.0171 22.2816C36.6071 22.3304 36.1776 22.3548 35.7286 22.3548C33.9519 22.3548 32.2728 21.9741 30.6914 21.2127C29.11 20.4513 27.7628 19.3872 26.65 18.0205C26.0252 19.5434 25.132 20.8661 23.9703 21.9888C22.8087 23.1114 21.4566 23.9558 19.9143 24.522V24.6977C19.9143 27.3139 20.8221 29.5298 22.6378 31.3456C24.4535 33.1613 26.6695 34.0691 29.2857 34.0691ZM29.2857 36.412C27.6652 36.412 26.1424 36.1045 24.7171 35.4895C23.2919 34.8745 22.0521 34.0399 20.9978 32.9856C19.9435 31.9313 19.1089 30.6915 18.4939 29.2663C17.8789 27.841 17.5714 26.3182 17.5714 24.6977C17.5714 23.0772 17.8789 21.5544 18.4939 20.1291C19.1089 18.7039 19.9435 17.4641 20.9978 16.4098C22.0521 15.3555 23.2919 14.5209 24.7171 13.9059C26.1424 13.2909 27.6652 12.9834 29.2857 12.9834C30.9062 12.9834 32.429 13.2909 33.8543 13.9059C35.2795 14.5209 36.5193 15.3555 37.5736 16.4098C38.6279 17.4641 39.4625 18.7039 40.0775 20.1291C40.6925 21.5544 41 23.0772 41 24.6977C41 26.3182 40.6925 27.841 40.0775 29.2663C39.4625 30.6915 38.6279 31.9313 37.5736 32.9856C36.5193 34.0399 35.2795 34.8745 33.8543 35.4895C32.429 36.1045 30.9062 36.412 29.2857 36.412ZM27.7043 15.4727C28.5243 16.8394 29.6371 17.9376 31.0428 18.7673C32.4486 19.5971 34.0105 20.012 35.7286 20.012C36.0019 20.012 36.2655 19.9973 36.5193 19.9681C36.7731 19.9388 37.0367 19.9046 37.31 19.8656C36.49 18.4989 35.3771 17.4007 33.9714 16.5709C32.5657 15.7411 31.0038 15.3263 29.2857 15.3263C29.0124 15.3263 28.7488 15.3409 28.495 15.3702C28.2412 15.3995 27.9776 15.4336 27.7043 15.4727ZM20.4121 21.7398C21.4078 21.1736 22.2766 20.4415 23.0185 19.5434C23.7605 18.6453 24.3169 17.6398 24.6878 16.527C23.6921 17.0932 22.8233 17.8253 22.0814 18.7234C21.3395 19.6215 20.7831 20.627 20.4121 21.7398Z" fill="#01CDEC"/>
<path d="M27.7043 15.4727C28.5243 16.8394 29.6371 17.9376 31.0428 18.7673C32.4486 19.5971 34.0105 20.012 35.7286 20.012C36.0019 20.012 36.2655 19.9973 36.5193 19.9681C36.7731 19.9388 37.0367 19.9046 37.31 19.8656C36.49 18.4989 35.3771 17.4007 33.9714 16.5709C32.5657 15.7411 31.0038 15.3263 29.2857 15.3263C29.0124 15.3263 28.7488 15.3409 28.495 15.3702C28.2412 15.3995 27.9776 15.4336 27.7043 15.4727Z" fill="#01CDEC"/>
<path d="M20.4121 21.7398C21.4078 21.1736 22.2766 20.4415 23.0185 19.5434C23.7605 18.6453 24.3169 17.6398 24.6878 16.527C23.6921 17.0932 22.8233 17.8253 22.0814 18.7234C21.3395 19.6215 20.7831 20.627 20.4121 21.7398Z" fill="#01CDEC"/>
</g>
</g>
</g>
</svg>
