<svg width="218" height="52" viewBox="0 0 218 52" fill="none" xmlns="http://www.w3.org/2000/svg">
<g id="&#235;&#161;&#156;&#234;&#179;&#160;">
<g id="HAPIT">
<path d="M0.245529 44.0144V9.03269C0.245529 4.31524 3.3663 1.12189 8.30147 1.12189C13.0189 1.12189 16.2123 4.31524 16.2123 9.03269V19.9917H29.4211V9.03269C29.4211 4.31524 32.5419 1.12189 37.477 1.12189C42.1945 1.12189 45.3878 4.31524 45.3878 9.03269V44.0144C45.3878 48.7318 42.267 51.9252 37.3319 51.9252C32.6144 51.9252 29.4211 48.7318 29.4211 44.0144V33.0554H16.2123V44.0144C16.2123 48.7318 13.0915 51.9252 8.15631 51.9252C3.43887 51.9252 0.245529 48.7318 0.245529 44.0144Z" fill="#64D7FB"/>
<path d="M47.7936 40.3856L66.373 5.041C67.9697 1.9928 70.5099 0.250977 73.4129 0.250977C77.1143 0.250977 79.5093 1.7025 81.2511 5.041L99.8306 40.3856C100.484 41.6194 100.774 42.9257 100.774 44.1595C100.774 48.5141 96.6372 51.9252 92.3552 51.9252C89.4522 51.9252 86.912 50.1833 85.3154 47.1351L84.2267 45.103H63.3974L62.3088 47.1351C60.7121 50.1833 58.172 51.9252 55.2689 51.9252C50.9869 51.9252 46.8501 48.5141 46.8501 44.1595C46.8501 42.9257 47.1404 41.6194 47.7936 40.3856ZM70.2196 32.0393H77.4046L73.8484 25.2172L70.2196 32.0393Z" fill="#64D7FB"/>
<path d="M104.503 44.0144V9.03269C104.503 4.38781 107.551 1.19446 112.413 1.12189H130.412C141.299 1.12189 148.556 7.50859 148.556 17.4515C148.556 27.3944 141.299 33.9989 130.412 33.9989H120.469V44.0144C120.469 48.7318 117.349 51.9252 112.413 51.9252C107.696 51.9252 104.503 48.7318 104.503 44.0144Z" fill="#33CCCC"/>
<path d="M153.619 44.0144V9.03269C153.619 4.31524 156.74 1.12189 161.675 1.12189C166.392 1.12189 169.586 4.31524 169.586 9.03269V44.0144C169.586 48.7318 166.465 51.9252 161.53 51.9252C156.812 51.9252 153.619 48.7318 153.619 44.0144Z" fill="#64D7FB"/>
<path d="M187.57 44.0144V14.1856H180.385C176.539 14.1856 173.926 11.5728 173.926 7.72632C173.926 3.73463 176.539 1.12189 180.385 1.12189H210.867C214.714 1.12189 217.327 3.73463 217.327 7.72632C217.327 11.5728 214.714 14.1856 210.867 14.1856H203.537V44.0144C203.537 48.7318 200.416 51.9252 195.481 51.9252C190.764 51.9252 187.57 48.7318 187.57 44.0144Z" fill="#64D7FB"/>
</g>
<path id="Ellipse 24" d="M130.729 15.6371C130.729 18.9773 128.021 21.6851 124.681 21.6851C121.341 21.6851 118.633 18.9773 118.633 15.6371C118.633 12.2969 121.341 9.58911 124.681 9.58911C128.021 9.58911 130.729 12.2969 130.729 15.6371Z" fill="#F5F5F5"/>
<ellipse id="Ellipse 26" cx="139.045" cy="15.6371" rx="6.048" ry="6.04801" fill="#F5F5F5"/>
<path id="Ellipse 25" d="M129.973 14.8811C129.973 17.3863 127.942 19.4171 125.437 19.4171C122.932 19.4171 120.901 17.3863 120.901 14.8811C120.901 12.3759 122.932 10.3451 125.437 10.3451C127.942 10.3451 129.973 12.3759 129.973 14.8811Z" fill="#0F0E0E"/>
<path id="Ellipse 27" d="M144.337 14.8811C144.337 17.3863 142.306 19.4171 139.801 19.4171C137.296 19.4171 135.265 17.3863 135.265 14.8811C135.265 12.3759 137.296 10.3451 139.801 10.3451C142.306 10.3451 144.337 12.3759 144.337 14.8811Z" fill="#0F0E0E"/>
</g>
</svg>
