<svg width="34" height="32" viewBox="0 0 34 32" fill="none" xmlns="http://www.w3.org/2000/svg">
<g id="home">
<path id="Vector" d="M2 13.8947L14.0821 4.23026M14.0821 4.23026C14.873 3.5976 15.8556 3.25292 16.8684 3.25292C17.8812 3.25292 18.8639 3.5976 19.6548 4.23026M14.0821 4.23026L4.97368 11.5161V28.25M19.6548 4.23026L31.7368 13.8947M19.6548 4.23026L22.0724 6.16411M22.0724 6.16411V2.74342C22.0724 2.54625 22.1507 2.35716 22.2901 2.21774C22.4295 2.07832 22.6186 2 22.8158 2H26.5329C26.7301 2 26.9192 2.07832 27.0586 2.21774C27.198 2.35716 27.2763 2.54625 27.2763 2.74342V10.3268M22.0724 6.16411L27.2763 10.3268M27.2763 10.3268L28.7632 11.5161V28.25M28.7632 28.25C28.7632 29.3546 27.8677 30.25 26.7632 30.25M28.7632 28.25V28.25C28.7632 29.3546 27.8677 30.25 26.7632 30.25V30.25M26.7632 30.25H6.97368M6.97368 30.25C5.86911 30.25 4.97368 29.3546 4.97368 28.25M6.97368 30.25V30.25C5.86911 30.25 4.97368 29.3546 4.97368 28.25V28.25" stroke="#0E0F0E" stroke-width="2.625" stroke-linecap="round"/>
<path id="Vector_2" d="M21.3289 30.3637V22.9294C21.3289 20.827 21.3289 19.7758 20.6747 19.1231C20.0234 18.4689 18.9722 18.4689 16.8684 18.4689C14.766 18.4689 13.7148 18.4689 13.062 19.1231C12.4078 19.7744 12.4078 20.8256 12.4078 22.9294V30.3637M19.842 11.7781C19.842 12.5668 19.5287 13.3232 18.9711 13.8808C18.4134 14.4385 17.657 14.7518 16.8684 14.7518C16.0797 14.7518 15.3233 14.4385 14.7657 13.8808C14.208 13.3232 13.8947 12.5668 13.8947 11.7781C13.8947 10.9895 14.208 10.2331 14.7657 9.67542C15.3233 9.11774 16.0797 8.80444 16.8684 8.80444C17.657 8.80444 18.4134 9.11774 18.9711 9.67542C19.5287 10.2331 19.842 10.9895 19.842 11.7781Z" stroke="#0E0F0E" stroke-width="2.625"/>
</g>
</svg>
