<svg width="34" height="32" viewBox="0 0 34 32" fill="none" xmlns="http://www.w3.org/2000/svg">
<g id="home">
<g id="Vector">
<path d="M14.0821 4.23026L4.97368 11.5161V28.25C4.97368 29.3546 5.86911 30.25 6.97368 30.25H26.7632C27.8677 30.25 28.7632 29.3546 28.7632 28.25V11.5161L27.2763 10.3268L22.0724 6.16411L19.6548 4.23026C18.8639 3.5976 17.8812 3.25292 16.8684 3.25292C15.8556 3.25292 14.873 3.5976 14.0821 4.23026Z" fill="#01CDEC"/>
<path d="M22.0724 2.74342V6.16411L27.2763 10.3268V2.74342C27.2763 2.54625 27.198 2.35716 27.0586 2.21774C26.9192 2.07832 26.7301 2 26.5329 2H22.8158C22.6186 2 22.4295 2.07832 22.2901 2.21774C22.1507 2.35716 22.0724 2.54625 22.0724 2.74342Z" fill="#01CDEC"/>
<path d="M2 13.8947L14.0821 4.23026M14.0821 4.23026C14.873 3.5976 15.8556 3.25292 16.8684 3.25292C17.8812 3.25292 18.8639 3.5976 19.6548 4.23026M14.0821 4.23026L4.97368 11.5161V28.25C4.97368 29.3546 5.86911 30.25 6.97368 30.25H26.7632C27.8677 30.25 28.7632 29.3546 28.7632 28.25V11.5161M19.6548 4.23026L22.0724 6.16411M19.6548 4.23026L28.7632 11.5161M31.7368 13.8947L28.7632 11.5161M22.0724 6.16411V2.74342C22.0724 2.54625 22.1507 2.35716 22.2901 2.21774C22.4295 2.07832 22.6186 2 22.8158 2H26.5329C26.7301 2 26.9192 2.07832 27.0586 2.21774C27.198 2.35716 27.2763 2.54625 27.2763 2.74342V10.3268M22.0724 6.16411L27.2763 10.3268M27.2763 10.3268L28.7632 11.5161M28.7632 11.5V11.5161" stroke="#01CDEC" stroke-width="2.625" stroke-linecap="round"/>
</g>
<path id="Vector_2" d="M21.3289 30.25V22.8158C21.3289 20.7134 21.3289 19.6622 20.6747 19.0095C20.0235 18.3553 18.9723 18.3553 16.8684 18.3553C14.766 18.3553 13.7148 18.3553 13.0621 19.0095C12.4079 19.6607 12.4079 20.7119 12.4079 22.8158V30.25M19.8421 11.6645C19.8421 12.4532 19.5288 13.2095 18.9711 13.7672C18.4135 14.3249 17.6571 14.6382 16.8684 14.6382C16.0798 14.6382 15.3234 14.3249 14.7657 13.7672C14.208 13.2095 13.8947 12.4532 13.8947 11.6645C13.8947 10.8758 14.208 10.1194 14.7657 9.56177C15.3234 9.00409 16.0798 8.6908 16.8684 8.6908C17.6571 8.6908 18.4135 9.00409 18.9711 9.56177C19.5288 10.1194 19.8421 10.8758 19.8421 11.6645Z" stroke="#F9FAFA" stroke-width="2.625"/>
</g>
</svg>
