<svg width="78" height="19" viewBox="0 0 78 19" fill="none" xmlns="http://www.w3.org/2000/svg">
<g id="&#235;&#161;&#156;&#234;&#179;&#160;">
<g id="HAPIT">
<path d="M0 15.7247V3.15538C0 1.46034 1.12133 0.312929 2.8946 0.312929C4.58964 0.312929 5.73705 1.46034 5.73705 3.15538V7.09308H10.4832V3.15538C10.4832 1.46034 11.6045 0.312929 13.3778 0.312929C15.0728 0.312929 16.2202 1.46034 16.2202 3.15538V15.7247C16.2202 17.4198 15.0989 18.5672 13.3256 18.5672C11.6306 18.5672 10.4832 17.4198 10.4832 15.7247V11.787H5.73705V15.7247C5.73705 17.4198 4.61572 18.5672 2.84245 18.5672C1.14741 18.5672 0 17.4198 0 15.7247Z" fill="#64D7FB"/>
<path d="M17.0846 14.4208L23.7605 1.72111C24.3342 0.625859 25.2469 0 26.29 0C27.6199 0 28.4805 0.521549 29.1063 1.72111L35.7822 14.4208C36.0169 14.8642 36.1212 15.3336 36.1212 15.7769C36.1212 17.3415 34.6348 18.5672 33.0962 18.5672C32.0531 18.5672 31.1404 17.9413 30.5667 16.8461L30.1755 16.1159H22.6913L22.3001 16.8461C21.7264 17.9413 20.8137 18.5672 19.7706 18.5672C18.232 18.5672 16.7456 17.3415 16.7456 15.7769C16.7456 15.3336 16.8499 14.8642 17.0846 14.4208ZM25.1426 11.4219H27.7242L26.4464 8.97065L25.1426 11.4219Z" fill="#64D7FB"/>
<path d="M37.4609 15.7247V3.15538C37.4609 1.48642 38.5562 0.339006 40.3034 0.312929H46.7706C50.6822 0.312929 53.29 2.60775 53.29 6.18036C53.29 9.75298 50.6822 12.126 46.7706 12.126H43.198V15.7247C43.198 17.4198 42.0766 18.5672 40.3034 18.5672C38.6083 18.5672 37.4609 17.4198 37.4609 15.7247Z" fill="#33CCCC"/>
<path d="M55.1091 15.7247V3.15538C55.1091 1.46034 56.2304 0.312929 58.0037 0.312929C59.6987 0.312929 60.8461 1.46034 60.8461 3.15538V15.7247C60.8461 17.4198 59.7248 18.5672 57.9515 18.5672C56.2565 18.5672 55.1091 17.4198 55.1091 15.7247Z" fill="#64D7FB"/>
<path d="M67.3082 15.7247V5.00688H64.7266C63.3445 5.00688 62.4057 4.06809 62.4057 2.68598C62.4057 1.25172 63.3445 0.312929 64.7266 0.312929H75.6791C77.0612 0.312929 78 1.25172 78 2.68598C78 4.06809 77.0612 5.00688 75.6791 5.00688H73.0453V15.7247C73.0453 17.4198 71.924 18.5672 70.1507 18.5672C68.4556 18.5672 67.3082 17.4198 67.3082 15.7247Z" fill="#64D7FB"/>
</g>
<path id="Ellipse 24" d="M46.8845 5.52859C46.8845 6.72878 45.9115 7.70172 44.7114 7.70172C43.5112 7.70172 42.5382 6.72878 42.5382 5.52859C42.5382 4.32841 43.5112 3.35547 44.7114 3.35547C45.9115 3.35547 46.8845 4.32841 46.8845 5.52859Z" fill="#F5F5F5"/>
<circle id="Ellipse 26" cx="49.8725" cy="5.52859" r="2.17312" fill="#F5F5F5"/>
<path id="Ellipse 25" d="M46.6128 5.2568C46.6128 6.15693 45.8831 6.88664 44.983 6.88664C44.0829 6.88664 43.3531 6.15693 43.3531 5.2568C43.3531 4.35666 44.0829 3.62695 44.983 3.62695C45.8831 3.62695 46.6128 4.35666 46.6128 5.2568Z" fill="#0F0E0E"/>
<path id="Ellipse 27" d="M51.774 5.2568C51.774 6.15693 51.0443 6.88664 50.1441 6.88664C49.244 6.88664 48.5143 6.15693 48.5143 5.2568C48.5143 4.35666 49.244 3.62695 50.1441 3.62695C51.0443 3.62695 51.774 4.35666 51.774 5.2568Z" fill="#0F0E0E"/>
</g>
</svg>
