<svg width="127" height="31" viewBox="0 0 127 31" fill="none" xmlns="http://www.w3.org/2000/svg">
<g id="&#235;&#161;&#156;&#234;&#179;&#160;">
<g id="HAPIT">
<path d="M0.974609 26.1219V5.81344C0.974609 3.07476 2.78636 1.22087 5.65144 1.22087C8.39013 1.22087 10.244 3.07476 10.244 5.81344V12.1756H17.9123V5.81344C17.9123 3.07476 19.7241 1.22087 22.5892 1.22087C25.3279 1.22087 27.1817 3.07476 27.1817 5.81344V26.1219C27.1817 28.8606 25.37 30.7144 22.5049 30.7144C19.7662 30.7144 17.9123 28.8606 17.9123 26.1219V19.7597H10.244V26.1219C10.244 28.8606 8.43227 30.7144 5.56718 30.7144C2.82849 30.7144 0.974609 28.8606 0.974609 26.1219Z" fill="#64D7FB"/>
<path d="M28.5784 24.0152L39.3646 3.49609C40.2916 1.72648 41.7662 0.715271 43.4516 0.715271C45.6004 0.715271 46.9908 1.55794 48.002 3.49609L58.7882 24.0152C59.1674 24.7315 59.336 25.4899 59.336 26.2061C59.336 28.7341 56.9344 30.7144 54.4485 30.7144C52.7631 30.7144 51.2884 29.7032 50.3615 27.9336L49.7295 26.7539H37.6371L37.0051 27.9336C36.0782 29.7032 34.6035 30.7144 32.9182 30.7144C30.4323 30.7144 28.0307 28.7341 28.0307 26.2061C28.0307 25.4899 28.1992 24.7315 28.5784 24.0152ZM41.5977 19.1698H45.7689L43.7044 15.2092L41.5977 19.1698Z" fill="#64D7FB"/>
<path d="M61.5006 26.1219V5.81344C61.5006 3.11689 63.2702 1.26301 66.0932 1.22087H76.5423C82.8624 1.22087 87.0757 4.92863 87.0757 10.7009C87.0757 16.4733 82.8624 20.3074 76.5423 20.3074H70.77V26.1219C70.77 28.8606 68.9582 30.7144 66.0932 30.7144C63.3545 30.7144 61.5006 28.8606 61.5006 26.1219Z" fill="#33CCCC"/>
<path d="M90.0149 26.1219V5.81344C90.0149 3.07476 91.8266 1.22087 94.6917 1.22087C97.4304 1.22087 99.2843 3.07476 99.2843 5.81344V26.1219C99.2843 28.8606 97.4725 30.7144 94.6074 30.7144C91.8688 30.7144 90.0149 28.8606 90.0149 26.1219Z" fill="#64D7FB"/>
<path d="M109.725 26.1219V8.80493H105.554C103.321 8.80493 101.804 7.28812 101.804 5.05504C101.804 2.73769 103.321 1.22087 105.554 1.22087H123.25C125.483 1.22087 127 2.73769 127 5.05504C127 7.28812 125.483 8.80493 123.25 8.80493H118.995V26.1219C118.995 28.8606 117.183 30.7144 114.318 30.7144C111.579 30.7144 109.725 28.8606 109.725 26.1219Z" fill="#64D7FB"/>
</g>
<path id="Ellipse 24" d="M76.7263 9.64758C76.7263 11.5867 75.1543 13.1587 73.2152 13.1587C71.276 13.1587 69.704 11.5867 69.704 9.64758C69.704 7.70843 71.276 6.13644 73.2152 6.13644C75.1543 6.13644 76.7263 7.70843 76.7263 9.64758Z" fill="#F5F5F5"/>
<circle id="Ellipse 26" cx="81.5541" cy="9.64758" r="3.51114" fill="#F5F5F5"/>
<path id="Ellipse 25" d="M76.2874 9.20867C76.2874 10.663 75.1084 11.842 73.654 11.842C72.1997 11.842 71.0207 10.663 71.0207 9.20867C71.0207 7.75431 72.1997 6.57532 73.654 6.57532C75.1084 6.57532 76.2874 7.75431 76.2874 9.20867Z" fill="#0F0E0E"/>
<path id="Ellipse 27" d="M84.6264 9.20867C84.6264 10.663 83.4474 11.842 81.993 11.842C80.5387 11.842 79.3597 10.663 79.3597 9.20867C79.3597 7.75431 80.5387 6.57532 81.993 6.57532C83.4474 6.57532 84.6264 7.75431 84.6264 9.20867Z" fill="#0F0E0E"/>
</g>
</svg>
