<svg width="46" height="52" viewBox="0 0 46 52" fill="none" xmlns="http://www.w3.org/2000/svg">
<g id="&#236;&#186;&#144;&#235;&#166;&#173;&#237;&#132;&#176;">
<g id="&#236;&#186;&#144;&#235;&#166;&#173;&#237;&#132;&#176;_2">
<path id="HAPIT" d="M0.875 43.0717V7.94385C0.875 3.27957 3.93594 0.0728784 8.81885 0H26.8929C37.8248 0 45.1128 6.41338 45.1128 16.3979C45.1128 26.3823 37.8248 33.0143 26.8929 33.0143H16.9085V43.0717C16.9085 47.8089 13.7747 51.0156 8.81885 51.0156C4.0817 51.0156 0.875 47.8089 0.875 43.0717Z" fill="#01CDEC"/>
<path id="Ellipse 24" d="M27.2114 14.5752C27.2114 17.9294 24.4923 20.6485 21.1381 20.6485C17.7839 20.6485 15.0648 17.9294 15.0648 14.5752C15.0648 11.2211 17.7839 8.50195 21.1381 8.50195C24.4923 8.50195 27.2114 11.2211 27.2114 14.5752Z" fill="#F5F5F5"/>
<circle id="Ellipse 26" cx="35.562" cy="14.5752" r="6.07328" fill="#F5F5F5"/>
<path id="Ellipse 25" d="M26.4521 15.3308C26.4521 17.8465 24.4128 19.8858 21.8971 19.8858C19.3815 19.8858 17.3422 17.8465 17.3422 15.3308C17.3422 12.8152 19.3815 10.7759 21.8971 10.7759C24.4128 10.7759 26.4521 12.8152 26.4521 15.3308Z" fill="#0F0E0E"/>
<path id="Ellipse 27" d="M40.8763 15.3308C40.8763 17.8465 38.837 19.8858 36.3213 19.8858C33.8057 19.8858 31.7664 17.8465 31.7664 15.3308C31.7664 12.8152 33.8057 10.7759 36.3213 10.7759C38.837 10.7759 40.8763 12.8152 40.8763 15.3308Z" fill="#0F0E0E"/>
</g>
<path id="Ellipse 29" d="M16.7311 22.3065C15.6938 24.3423 14.3657 24.5263 13.5514 24.1113C12.7371 23.6964 11.8623 22.7278 12.8997 20.6921C13.9371 18.6563 16.731 18.0109 16.731 18.0109C16.731 18.0109 17.7685 20.2707 16.7311 22.3065Z" fill="white"/>
<path id="Ellipse 30" d="M40.0447 21.7396C41.0821 23.7754 42.4102 23.9594 43.2245 23.5444C44.0388 23.1295 44.9135 22.1609 43.8762 20.1252C42.8388 18.0894 40.0448 17.444 40.0448 17.444C40.0448 17.444 39.0073 19.7038 40.0447 21.7396Z" fill="white"/>
</g>
</svg>
