<svg width="312" height="235" viewBox="0 0 312 235" fill="none" xmlns="http://www.w3.org/2000/svg">
<path d="M213.067 62.8345C213.223 64.1512 214.453 65.2774 215.77 65.2774C217.069 65.2774 218.213 64.4111 218.213 63.0771C218.213 61.1194 216.671 60.8941 215.112 60.8941V59.5081C216.55 59.5081 217.987 59.127 217.987 57.4291C217.987 56.1991 217.208 55.4368 215.943 55.4368C214.626 55.4368 213.552 56.4416 213.656 57.8103L211.768 57.4811C212.097 55.2115 213.674 53.8082 216.047 53.8082C217.987 53.8082 219.841 54.9343 219.841 57.1C219.841 58.5726 219.2 59.5428 217.728 60.0106C219.252 60.4437 220.118 61.4139 220.118 63.0251C220.118 65.4679 218.161 66.9059 215.787 66.9059C213.448 66.9059 212.08 65.8491 211.387 63.5275L213.067 62.8345Z" fill="#E0E2DF"/>
<rect width="38.5" height="38.5" transform="translate(196.5 80)" fill="#E1FBFF"/>
<path d="M208.167 96.6568L207.11 95.3747L210.575 92.4122H212.134V103.587H214.542V105.25H207.56V103.587H210.228V95.7732C210.228 95.496 210.228 95.2015 210.246 94.907L208.167 96.6568ZM225.573 98.8571C225.573 101.906 224.464 105.389 220.896 105.389C217.327 105.389 216.235 101.906 216.235 98.8571C216.235 95.8079 217.327 92.3082 220.896 92.3082C224.516 92.3082 225.573 95.9118 225.573 98.8571ZM223.598 98.8571C223.598 97.0726 223.286 93.9194 220.896 93.9194C218.505 93.9194 218.193 97.0726 218.193 98.8571C218.193 100.642 218.522 103.795 220.896 103.795C223.286 103.795 223.598 100.642 223.598 98.8571Z" fill="#0E0F0E"/>
<path d="M208.167 135.157L207.11 133.875L210.575 130.912H212.134V142.087H214.542V143.75H207.56V142.087H210.228V134.273C210.228 133.996 210.228 133.701 210.246 133.407L208.167 135.157ZM225.365 132.298L219.735 143.75H217.656L222.819 133.615C222.975 133.286 223.182 132.974 223.425 132.697H216.582V130.947H225.365V132.298Z" fill="#0E0F0E"/>
<path d="M214.906 182.25H206.244V181.141L210.558 176.81C211.147 176.221 211.701 175.632 212.152 174.922C213.018 173.362 213.122 170.937 210.662 170.937C209.293 170.937 208.271 171.942 208.375 173.31L206.469 172.964C206.798 170.677 208.392 169.308 210.766 169.308C212.914 169.308 214.681 170.59 214.681 172.912C214.681 174.852 213.347 176.221 212.065 177.503L208.808 180.795C209.345 180.656 209.917 180.552 210.471 180.552H214.906V182.25ZM225.764 179.01H223.997V182.25H222.334V179.01H216.062V177.624L222.212 169.429H223.997V177.52H225.764V179.01ZM222.334 177.52V172.843C222.334 172.461 222.368 172.063 222.42 171.612L218.124 177.52H222.334Z" fill="#0E0F0E"/>
<path d="M207.907 216.835C208.063 218.151 209.293 219.277 210.61 219.277C211.909 219.277 213.052 218.411 213.052 217.077C213.052 215.119 211.511 214.894 209.951 214.894V213.508C211.389 213.508 212.827 213.127 212.827 211.429C212.827 210.199 212.048 209.437 210.783 209.437C209.466 209.437 208.392 210.442 208.496 211.81L206.608 211.481C206.937 209.212 208.513 207.808 210.887 207.808C212.827 207.808 214.681 208.934 214.681 211.1C214.681 212.573 214.04 213.543 212.567 214.011C214.092 214.444 214.958 215.414 214.958 217.025C214.958 219.468 213 220.906 210.627 220.906C208.288 220.906 206.919 219.849 206.226 217.528L207.907 216.835ZM218.487 212.157L217.431 210.875L220.896 207.912H222.455V219.087H224.863V220.75H217.881V219.087H220.549V211.273C220.549 210.996 220.549 210.701 220.566 210.407L218.487 212.157Z" fill="#0E0F0E"/>
<path d="M289.565 64.0646C290.292 64.7576 291.332 65.26 292.354 65.26C294.035 65.26 295.022 64.0473 295.022 62.4707C295.022 60.8941 294.017 60.0625 292.423 60.0625C291.748 60.0625 291.089 60.2011 290.448 60.3917L289.27 60.0625L290.31 53.9468H296.512V55.6966H291.644L291.124 58.6765C291.678 58.5553 292.267 58.486 292.822 58.486C295.161 58.486 296.928 59.8373 296.928 62.3668C296.928 65.0695 294.97 66.8886 292.233 66.8886C291.245 66.8886 290.102 66.5941 289.288 65.9877C289.01 65.8144 288.785 65.6412 288.577 65.4506L289.565 64.0646Z" fill="#E0E2DF"/>
<rect width="38.5" height="38.5" transform="translate(273.5 80)" fill="#E1FBFF"/>
<path d="M285.167 96.6568L284.11 95.3747L287.575 92.4122H289.134V103.587H291.542V105.25H284.56V103.587H287.228V95.7732C287.228 95.496 287.228 95.2015 287.246 94.907L285.167 96.6568ZM302.227 105.25H293.564V104.141L297.878 99.8099C298.467 99.2209 299.022 98.6318 299.472 97.9215C300.338 96.3623 300.442 93.9368 297.982 93.9368C296.613 93.9368 295.591 94.9416 295.695 96.3103L293.79 95.9638C294.119 93.6769 295.713 92.3082 298.086 92.3082C300.234 92.3082 302.002 93.5903 302.002 95.9118C302.002 97.8522 300.668 99.2209 299.385 100.503L296.128 103.795C296.665 103.656 297.237 103.552 297.792 103.552H302.227V105.25Z" fill="#0E0F0E"/>
<path d="M285.167 135.157L284.11 133.875L287.575 130.912H289.134V142.087H291.542V143.75H284.56V142.087H287.228V134.273C287.228 133.996 287.228 133.701 287.246 133.407L285.167 135.157ZM294.933 143.75L298.866 138.726L299.472 137.894C298.814 138.362 298.051 138.57 297.237 138.57C295.124 138.57 293.668 137.045 293.668 134.897C293.668 132.489 295.574 130.808 297.982 130.808C300.442 130.808 302.157 132.419 302.157 134.984C302.157 136.56 301.551 137.721 300.685 138.986L297.358 143.75H294.933ZM295.574 134.758C295.574 136.214 296.423 137.115 297.896 137.115C299.316 137.115 300.321 136.162 300.321 134.776C300.321 133.372 299.42 132.385 297.948 132.385C296.579 132.385 295.574 133.338 295.574 134.758Z" fill="#0E0F0E"/>
<path d="M291.906 182.25H283.244V181.141L287.558 176.81C288.147 176.221 288.701 175.632 289.152 174.922C290.018 173.362 290.122 170.937 287.662 170.937C286.293 170.937 285.271 171.942 285.375 173.31L283.469 172.964C283.798 170.677 285.392 169.308 287.766 169.308C289.914 169.308 291.681 170.59 291.681 172.912C291.681 174.852 290.347 176.221 289.065 177.503L285.808 180.795C286.345 180.656 286.917 180.552 287.471 180.552H291.906V182.25ZM300.979 169.447L296.648 174.818C297.237 174.488 297.913 174.315 298.589 174.315C300.91 174.315 302.383 175.926 302.383 178.144C302.383 180.639 300.39 182.389 297.913 182.389C295.262 182.389 293.582 180.656 293.582 177.936C293.582 176.567 294.309 175.199 295.106 174.125L298.606 169.447H300.979ZM297.878 180.812C299.316 180.812 300.477 179.79 300.477 178.283C300.477 176.758 299.472 175.77 297.948 175.77C296.492 175.77 295.418 176.827 295.418 178.248C295.418 179.738 296.284 180.812 297.878 180.812Z" fill="#0E0F0E"/>
<path d="M297.066 220.75H288.404V219.641L292.718 215.31C293.307 214.721 293.861 214.132 294.312 213.422C295.178 211.862 295.282 209.437 292.822 209.437C291.453 209.437 290.431 210.442 290.535 211.81L288.629 211.464C288.958 209.177 290.552 207.808 292.926 207.808C295.074 207.808 296.841 209.09 296.841 211.412C296.841 213.352 295.507 214.721 294.225 216.003L290.968 219.295C291.505 219.156 292.077 219.052 292.631 219.052H297.066V220.75Z" fill="#E0E2DF"/>
<path d="M181.566 66.75H172.904V65.6412L177.218 61.3099C177.807 60.7209 178.361 60.1318 178.812 59.4215C179.678 57.8623 179.782 55.4368 177.322 55.4368C175.953 55.4368 174.931 56.4416 175.035 57.8103L173.129 57.4638C173.458 55.1769 175.052 53.8082 177.426 53.8082C179.574 53.8082 181.341 55.0903 181.341 57.4118C181.341 59.3522 180.007 60.7209 178.725 62.0029L175.468 65.2947C176.005 65.1561 176.577 65.0521 177.131 65.0521H181.566V66.75Z" fill="#E0E2DF"/>
<rect width="38.5" height="38.5" transform="translate(158 80)" fill="#E1FBFF"/>
<path d="M174.273 105.25L178.205 100.226L178.812 99.3941C178.153 99.8619 177.391 100.07 176.577 100.07C174.463 100.07 173.008 98.5452 173.008 96.3969C173.008 93.9887 174.914 92.3082 177.322 92.3082C179.782 92.3082 181.497 93.9194 181.497 96.4835C181.497 98.0601 180.891 99.2209 180.025 100.486L176.698 105.25H174.273ZM174.914 96.2583C174.914 97.7136 175.763 98.6145 177.235 98.6145C178.656 98.6145 179.661 97.6616 179.661 96.2756C179.661 94.8723 178.76 93.8848 177.287 93.8848C175.919 93.8848 174.914 94.8377 174.914 96.2583Z" fill="#0E0F0E"/>
<rect width="38.5" height="38.5" transform="translate(158 118.5)" fill="#E1FBFF"/>
<path d="M169.667 135.157L168.61 133.875L172.075 130.912H173.634V142.087H176.042V143.75H169.06V142.087H171.728V134.273C171.728 133.996 171.728 133.701 171.746 133.407L169.667 135.157ZM185.479 130.947L181.148 136.318C181.737 135.988 182.413 135.815 183.089 135.815C185.41 135.815 186.883 137.426 186.883 139.644C186.883 142.139 184.89 143.889 182.413 143.889C179.762 143.889 178.082 142.156 178.082 139.436C178.082 138.067 178.809 136.699 179.606 135.625L183.106 130.947H185.479ZM182.378 142.312C183.816 142.312 184.977 141.29 184.977 139.783C184.977 138.258 183.972 137.27 182.448 137.27C180.992 137.27 179.918 138.327 179.918 139.748C179.918 141.238 180.784 142.312 182.378 142.312Z" fill="#0E0F0E"/>
<rect width="38.5" height="38.5" transform="translate(158 157)" fill="#E1FBFF"/>
<path d="M176.406 182.25H167.744V181.141L172.058 176.81C172.647 176.221 173.201 175.632 173.652 174.922C174.518 173.362 174.622 170.937 172.162 170.937C170.793 170.937 169.771 171.942 169.875 173.31L167.969 172.964C168.298 170.677 169.892 169.308 172.266 169.308C174.414 169.308 176.181 170.59 176.181 172.912C176.181 174.852 174.847 176.221 173.565 177.503L170.308 180.795C170.845 180.656 171.417 180.552 171.971 180.552H176.406V182.25ZM179.727 178.335C179.883 179.651 181.113 180.777 182.43 180.777C183.73 180.777 184.873 179.911 184.873 178.577C184.873 176.619 183.331 176.394 181.772 176.394V175.008C183.21 175.008 184.648 174.627 184.648 172.929C184.648 171.699 183.868 170.937 182.603 170.937C181.287 170.937 180.213 171.942 180.317 173.31L178.428 172.981C178.757 170.712 180.334 169.308 182.707 169.308C184.648 169.308 186.502 170.434 186.502 172.6C186.502 174.073 185.861 175.043 184.388 175.511C185.913 175.944 186.779 176.914 186.779 178.525C186.779 180.968 184.821 182.406 182.448 182.406C180.109 182.406 178.74 181.349 178.047 179.028L179.727 178.335Z" fill="#0E0F0E"/>
<rect width="38.5" height="38.5" transform="translate(158 195.5)" fill="#E1FBFF"/>
<path d="M169.407 216.835C169.563 218.151 170.793 219.277 172.11 219.277C173.409 219.277 174.552 218.411 174.552 217.077C174.552 215.119 173.011 214.894 171.451 214.894V213.508C172.889 213.508 174.327 213.127 174.327 211.429C174.327 210.199 173.548 209.437 172.283 209.437C170.966 209.437 169.892 210.442 169.996 211.81L168.108 211.481C168.437 209.212 170.013 207.808 172.387 207.808C174.327 207.808 176.181 208.934 176.181 211.1C176.181 212.573 175.54 213.543 174.067 214.011C175.592 214.444 176.458 215.414 176.458 217.025C176.458 219.468 174.5 220.906 172.127 220.906C169.788 220.906 168.419 219.849 167.726 217.528L169.407 216.835ZM187.073 214.357C187.073 217.406 185.964 220.889 182.396 220.889C178.827 220.889 177.735 217.406 177.735 214.357C177.735 211.308 178.827 207.808 182.396 207.808C186.016 207.808 187.073 211.412 187.073 214.357ZM185.098 214.357C185.098 212.573 184.786 209.419 182.396 209.419C180.005 209.419 179.693 212.573 179.693 214.357C179.693 216.142 180.022 219.295 182.396 219.295C184.786 219.295 185.098 216.142 185.098 214.357Z" fill="#0E0F0E"/>
<path d="M259.104 63.5102H257.336V66.75H255.673V63.5102H249.402V62.1242L255.552 53.9295H257.336V62.0203H259.104V63.5102ZM255.673 62.0203V57.3425C255.673 56.9614 255.708 56.5629 255.76 56.1124L251.463 62.0203H255.673Z" fill="#E0E2DF"/>
<rect width="38.5" height="38.5" transform="translate(235 80)" fill="#E1FBFF"/>
<path d="M246.667 96.6568L245.61 95.3747L249.075 92.4122H250.634V103.587H253.042V105.25H246.06V103.587H248.728V95.7732C248.728 95.496 248.728 95.2015 248.746 94.907L246.667 96.6568ZM256.987 96.6568L255.931 95.3747L259.396 92.4122H260.955V103.587H263.363V105.25H256.381V103.587H259.049V95.7732C259.049 95.496 259.049 95.2015 259.066 94.907L256.987 96.6568Z" fill="#0E0F0E"/>
<path d="M246.667 135.157L245.61 133.875L249.075 130.912H250.634V142.087H253.042V143.75H246.06V142.087H248.728V134.273C248.728 133.996 248.728 133.701 248.746 133.407L246.667 135.157ZM261.44 137.063C262.947 137.53 263.796 138.587 263.796 140.181C263.796 142.728 261.665 143.889 259.413 143.889C257.057 143.889 255.03 142.676 255.03 140.181C255.03 138.57 255.879 137.53 257.403 137.063C256.121 136.577 255.463 135.555 255.463 134.204C255.463 132.038 257.369 130.808 259.413 130.808C261.457 130.808 263.363 132.038 263.363 134.204C263.363 135.555 262.705 136.577 261.44 137.063ZM259.413 132.264C258.183 132.264 257.317 133.008 257.317 134.239C257.317 135.59 258.113 136.352 259.413 136.352C260.695 136.352 261.509 135.573 261.509 134.239C261.509 132.974 260.591 132.264 259.413 132.264ZM259.413 142.381C260.747 142.381 261.838 141.619 261.838 140.146C261.838 138.639 260.799 137.877 259.413 137.877C258.027 137.877 256.987 138.622 256.987 140.146C256.987 141.55 258.01 142.381 259.413 142.381Z" fill="#0E0F0E"/>
<path d="M253.406 182.25H244.744V181.141L249.058 176.81C249.647 176.221 250.201 175.632 250.652 174.922C251.518 173.362 251.622 170.937 249.162 170.937C247.793 170.937 246.771 171.942 246.875 173.31L244.969 172.964C245.298 170.677 246.892 169.308 249.266 169.308C251.414 169.308 253.181 170.59 253.181 172.912C253.181 174.852 251.847 176.221 250.565 177.503L247.308 180.795C247.845 180.656 248.417 180.552 248.971 180.552H253.406V182.25ZM256.225 179.565C256.953 180.258 257.992 180.76 259.014 180.76C260.695 180.76 261.682 179.547 261.682 177.971C261.682 176.394 260.678 175.563 259.084 175.563C258.408 175.563 257.75 175.701 257.109 175.892L255.931 175.563L256.97 169.447H263.172V171.197H258.304L257.784 174.177C258.339 174.055 258.928 173.986 259.482 173.986C261.821 173.986 263.588 175.337 263.588 177.867C263.588 180.569 261.63 182.389 258.893 182.389C257.906 182.389 256.762 182.094 255.948 181.488C255.671 181.314 255.445 181.141 255.238 180.951L256.225 179.565Z" fill="#0E0F0E"/>
<path d="M251.827 212.157L250.77 210.875L254.235 207.912H255.794V219.087H258.203V220.75H251.221V219.087H253.889V211.273C253.889 210.996 253.889 210.701 253.906 210.407L251.827 212.157Z" fill="#E0E2DF"/>
<path d="M136.327 58.1568L135.27 56.8747L138.735 53.9122H140.294V65.0868H142.703V66.75H135.721V65.0868H138.389V57.2732C138.389 56.996 138.389 56.7015 138.406 56.407L136.327 58.1568Z" fill="#E0E2DF"/>
<path d="M140.78 98.5625C142.287 99.0303 143.136 100.087 143.136 101.681C143.136 104.228 141.005 105.389 138.753 105.389C136.396 105.389 134.369 104.176 134.369 101.681C134.369 100.07 135.218 99.0303 136.743 98.5625C135.461 98.0774 134.802 97.0553 134.802 95.7039C134.802 93.5383 136.708 92.3082 138.753 92.3082C140.797 92.3082 142.703 93.5383 142.703 95.7039C142.703 97.0553 142.044 98.0774 140.78 98.5625ZM138.753 93.7635C137.522 93.7635 136.656 94.5085 136.656 95.7386C136.656 97.0899 137.453 97.8522 138.753 97.8522C140.035 97.8522 140.849 97.0726 140.849 95.7386C140.849 94.4738 139.931 93.7635 138.753 93.7635ZM138.753 103.881C140.087 103.881 141.178 103.119 141.178 101.646C141.178 100.139 140.139 99.3768 138.753 99.3768C137.367 99.3768 136.327 100.122 136.327 101.646C136.327 103.05 137.349 103.881 138.753 103.881Z" fill="#E0E2DF"/>
<path d="M131.167 135.157L130.11 133.875L133.575 130.912H135.134V142.087H137.542V143.75H130.56V142.087H133.228V134.273C133.228 133.996 133.228 133.701 133.246 133.407L131.167 135.157ZM140.725 141.065C141.453 141.758 142.492 142.26 143.514 142.26C145.195 142.26 146.182 141.047 146.182 139.471C146.182 137.894 145.178 137.063 143.584 137.063C142.908 137.063 142.25 137.201 141.609 137.392L140.431 137.063L141.47 130.947H147.672V132.697H142.804L142.284 135.677C142.839 135.555 143.428 135.486 143.982 135.486C146.321 135.486 148.088 136.837 148.088 139.367C148.088 142.069 146.13 143.889 143.393 143.889C142.406 143.889 141.262 143.594 140.448 142.988C140.171 142.814 139.945 142.641 139.738 142.451L140.725 141.065Z" fill="#0E0F0E"/>
<path d="M137.906 182.25H129.244V181.141L133.558 176.81C134.147 176.221 134.701 175.632 135.152 174.922C136.018 173.362 136.122 170.937 133.662 170.937C132.293 170.937 131.271 171.942 131.375 173.31L129.469 172.964C129.798 170.677 131.392 169.308 133.766 169.308C135.914 169.308 137.681 170.59 137.681 172.912C137.681 174.852 136.347 176.221 135.065 177.503L131.808 180.795C132.345 180.656 132.917 180.552 133.471 180.552H137.906V182.25ZM148.227 182.25H139.564V181.141L143.878 176.81C144.467 176.221 145.022 175.632 145.472 174.922C146.338 173.362 146.442 170.937 143.982 170.937C142.613 170.937 141.591 171.942 141.695 173.31L139.79 172.964C140.119 170.677 141.713 169.308 144.086 169.308C146.234 169.308 148.002 170.59 148.002 172.912C148.002 174.852 146.668 176.221 145.385 177.503L142.128 180.795C142.665 180.656 143.237 180.552 143.792 180.552H148.227V182.25Z" fill="#0E0F0E"/>
<path d="M137.906 220.75H129.244V219.641L133.558 215.31C134.147 214.721 134.701 214.132 135.152 213.422C136.018 211.862 136.122 209.437 133.662 209.437C132.293 209.437 131.271 210.442 131.375 211.81L129.469 211.464C129.798 209.177 131.392 207.808 133.766 207.808C135.914 207.808 137.681 209.09 137.681 211.412C137.681 213.352 136.347 214.721 135.065 216.003L131.808 219.295C132.345 219.156 132.917 219.052 133.471 219.052H137.906V220.75ZM140.933 220.75L144.866 215.726L145.472 214.894C144.814 215.362 144.051 215.57 143.237 215.57C141.124 215.57 139.668 214.045 139.668 211.897C139.668 209.489 141.574 207.808 143.982 207.808C146.442 207.808 148.157 209.419 148.157 211.984C148.157 213.56 147.551 214.721 146.685 215.986L143.358 220.75H140.933ZM141.574 211.758C141.574 213.214 142.423 214.115 143.896 214.115C145.316 214.115 146.321 213.162 146.321 211.776C146.321 210.372 145.42 209.385 143.948 209.385C142.579 209.385 141.574 210.338 141.574 211.758Z" fill="#0E0F0E"/>
<path d="M92.4069 62.8345C92.5628 64.1512 93.7929 65.2774 95.1096 65.2774C96.409 65.2774 97.5524 64.4111 97.5524 63.0771C97.5524 61.1194 96.0105 60.8941 94.4513 60.8941V59.5081C95.8892 59.5081 97.3272 59.127 97.3272 57.4291C97.3272 56.1991 96.5476 55.4368 95.2829 55.4368C93.9662 55.4368 92.892 56.4416 92.996 57.8103L91.1075 57.4811C91.4367 55.2115 93.0133 53.8082 95.3868 53.8082C97.3272 53.8082 99.181 54.9343 99.181 57.1C99.181 58.5726 98.54 59.5428 97.0673 60.0106C98.5919 60.4437 99.4582 61.4139 99.4582 63.0251C99.4582 65.4679 97.5005 66.9059 95.1269 66.9059C92.7881 66.9059 91.4194 65.8491 90.7264 63.5275L92.4069 62.8345ZM102.987 58.1568L101.931 56.8747L105.396 53.9122H106.955V65.0868H109.363V66.75H102.381V65.0868H105.049V57.2732C105.049 56.996 105.049 56.7015 105.066 56.407L102.987 58.1568Z" fill="#E0E2DF"/>
<path d="M104.705 93.7982L99.0745 105.25H96.9955L102.158 95.1149C102.314 94.7857 102.522 94.4738 102.765 94.1966H95.9213V92.4468H104.705V93.7982Z" fill="#E0E2DF"/>
<path d="M92.6668 135.157L91.61 133.875L95.075 130.912H96.6342V142.087H99.0424V143.75H92.0604V142.087H94.7285V134.273C94.7285 133.996 94.7285 133.701 94.7458 133.407L92.6668 135.157ZM110.264 140.51H108.497V143.75H106.834V140.51H100.562V139.124L106.712 130.929H108.497V139.02H110.264V140.51ZM106.834 139.02V134.343C106.834 133.961 106.868 133.563 106.92 133.112L102.624 139.02H106.834Z" fill="#0E0F0E"/>
<path d="M99.4062 182.25H90.7437V181.141L95.0576 176.81C95.6467 176.221 96.2011 175.632 96.6515 174.922C97.5178 173.362 97.6217 170.937 95.1616 170.937C93.7929 170.937 92.7707 171.942 92.8747 173.31L90.9689 172.964C91.2981 170.677 92.892 169.308 95.2655 169.308C97.4138 169.308 99.181 170.59 99.181 172.912C99.181 174.852 97.847 176.221 96.5649 177.503L93.3078 180.795C93.8449 180.656 94.4166 180.552 94.971 180.552H99.4062V182.25ZM102.987 173.657L101.931 172.375L105.396 169.412H106.955V180.587H109.363V182.25H102.381V180.587H105.049V172.773C105.049 172.496 105.049 172.201 105.066 171.907L102.987 173.657Z" fill="#0E0F0E"/>
<path d="M99.4062 220.75H90.7437V219.641L95.0576 215.31C95.6467 214.721 96.2011 214.132 96.6515 213.422C97.5178 211.862 97.6217 209.437 95.1616 209.437C93.7929 209.437 92.7707 210.442 92.8747 211.81L90.9689 211.464C91.2981 209.177 92.892 207.808 95.2655 207.808C97.4138 207.808 99.181 209.09 99.181 211.412C99.181 213.352 97.847 214.721 96.5649 216.003L93.3078 219.295C93.8449 219.156 94.4166 219.052 94.971 219.052H99.4062V220.75ZM107.44 214.063C108.947 214.53 109.796 215.587 109.796 217.181C109.796 219.728 107.665 220.889 105.413 220.889C103.057 220.889 101.03 219.676 101.03 217.181C101.03 215.57 101.879 214.53 103.403 214.063C102.121 213.577 101.463 212.555 101.463 211.204C101.463 209.038 103.369 207.808 105.413 207.808C107.457 207.808 109.363 209.038 109.363 211.204C109.363 212.555 108.705 213.577 107.44 214.063ZM105.413 209.264C104.183 209.264 103.317 210.008 103.317 211.239C103.317 212.59 104.113 213.352 105.413 213.352C106.695 213.352 107.509 212.573 107.509 211.239C107.509 209.974 106.591 209.264 105.413 209.264ZM105.413 219.381C106.747 219.381 107.838 218.619 107.838 217.146C107.838 215.639 106.799 214.877 105.413 214.877C104.027 214.877 102.987 215.622 102.987 217.146C102.987 218.55 104.01 219.381 105.413 219.381Z" fill="#0E0F0E"/>
<path d="M53.9069 62.8345C54.0628 64.1512 55.2929 65.2774 56.6096 65.2774C57.909 65.2774 59.0524 64.4111 59.0524 63.0771C59.0524 61.1194 57.5105 60.8941 55.9513 60.8941V59.5081C57.3892 59.5081 58.8272 59.127 58.8272 57.4291C58.8272 56.1991 58.0476 55.4368 56.7829 55.4368C55.4662 55.4368 54.392 56.4416 54.496 57.8103L52.6075 57.4811C52.9367 55.2115 54.5133 53.8082 56.8868 53.8082C58.8272 53.8082 60.681 54.9343 60.681 57.1C60.681 58.5726 60.04 59.5428 58.5673 60.0106C60.0919 60.4437 60.9582 61.4139 60.9582 63.0251C60.9582 65.4679 59.0005 66.9059 56.6269 66.9059C54.2881 66.9059 52.9194 65.8491 52.2264 63.5275L53.9069 62.8345ZM71.5733 60.3571C71.5733 63.4063 70.4645 66.8886 66.8955 66.8886C63.3266 66.8886 62.2351 63.4063 62.2351 60.3571C62.2351 57.3079 63.3266 53.8082 66.8955 53.8082C70.5165 53.8082 71.5733 57.4118 71.5733 60.3571ZM69.5982 60.3571C69.5982 58.5726 69.2864 55.4194 66.8955 55.4194C64.5047 55.4194 64.1928 58.5726 64.1928 60.3571C64.1928 62.1415 64.522 65.2947 66.8955 65.2947C69.2864 65.2947 69.5982 62.1415 69.5982 60.3571Z" fill="#E0E2DF"/>
<path d="M64.8191 92.4468L60.4878 97.8176C61.0769 97.4884 61.7526 97.3151 62.4282 97.3151C64.7498 97.3151 66.2224 98.9264 66.2224 101.144C66.2224 103.639 64.23 105.389 61.7526 105.389C59.1018 105.389 57.4213 103.656 57.4213 100.936C57.4213 99.5674 58.149 98.1987 58.9459 97.1246L62.4456 92.4468H64.8191ZM61.7179 103.812C63.1559 103.812 64.3167 102.79 64.3167 101.283C64.3167 99.758 63.3118 98.7704 61.7872 98.7704C60.3319 98.7704 59.2578 99.8273 59.2578 101.248C59.2578 102.738 60.124 103.812 61.7179 103.812Z" fill="#E0E2DF"/>
<path d="M54.1668 135.157L53.11 133.875L56.575 130.912H58.1342V142.087H60.5424V143.75H53.5604V142.087H56.2285V134.273C56.2285 133.996 56.2285 133.701 56.2458 133.407L54.1668 135.157ZM64.2275 139.835C64.3834 141.151 65.6135 142.277 66.9302 142.277C68.2296 142.277 69.373 141.411 69.373 140.077C69.373 138.119 67.8311 137.894 66.2718 137.894V136.508C67.7098 136.508 69.1478 136.127 69.1478 134.429C69.1478 133.199 68.3682 132.437 67.1034 132.437C65.7867 132.437 64.7126 133.442 64.8165 134.81L62.9281 134.481C63.2573 132.212 64.8339 130.808 67.2074 130.808C69.1478 130.808 71.0016 131.934 71.0016 134.1C71.0016 135.573 70.3605 136.543 68.8879 137.011C70.4125 137.444 71.2788 138.414 71.2788 140.025C71.2788 142.468 69.321 143.906 66.9475 143.906C64.6086 143.906 63.24 142.849 62.547 140.528L64.2275 139.835Z" fill="#0E0F0E"/>
<path d="M60.9062 182.25H52.2437V181.141L56.5576 176.81C57.1467 176.221 57.7011 175.632 58.1515 174.922C59.0178 173.362 59.1217 170.937 56.6616 170.937C55.2929 170.937 54.2707 171.942 54.3747 173.31L52.4689 172.964C52.7981 170.677 54.392 169.308 56.7655 169.308C58.9138 169.308 60.681 170.59 60.681 172.912C60.681 174.852 59.347 176.221 58.0649 177.503L54.8078 180.795C55.3449 180.656 55.9166 180.552 56.471 180.552H60.9062V182.25ZM71.5733 175.857C71.5733 178.906 70.4645 182.389 66.8955 182.389C63.3266 182.389 62.2351 178.906 62.2351 175.857C62.2351 172.808 63.3266 169.308 66.8955 169.308C70.5165 169.308 71.5733 172.912 71.5733 175.857ZM69.5982 175.857C69.5982 174.073 69.2864 170.919 66.8955 170.919C64.5047 170.919 64.1928 174.073 64.1928 175.857C64.1928 177.642 64.522 180.795 66.8955 180.795C69.2864 180.795 69.5982 177.642 69.5982 175.857Z" fill="#0E0F0E"/>
<path d="M60.9062 220.75H52.2437V219.641L56.5576 215.31C57.1467 214.721 57.7011 214.132 58.1515 213.422C59.0178 211.862 59.1217 209.437 56.6616 209.437C55.2929 209.437 54.2707 210.442 54.3747 211.81L52.4689 211.464C52.7981 209.177 54.392 207.808 56.7655 207.808C58.9138 207.808 60.681 209.09 60.681 211.412C60.681 213.352 59.347 214.721 58.0649 216.003L54.8078 219.295C55.3449 219.156 55.9166 219.052 56.471 219.052H60.9062V220.75ZM71.3654 209.298L65.7348 220.75H63.6558L68.8186 210.615C68.9745 210.286 69.1824 209.974 69.425 209.697H62.5816V207.947H71.3654V209.298Z" fill="#0E0F0E"/>
<g filter="url(#filter0_d_292_1593)">
<rect x="4" y="46.3125" width="28.875" height="28.875" rx="3.85" fill="#F9FAFA"/>
<path d="M15.55 66.525L22.942 60.981C23.096 60.8655 23.096 60.6345 22.942 60.519L15.55 54.975" stroke="#0E0F0E" stroke-width="1.44375" stroke-linecap="round"/>
</g>
<g filter="url(#filter1_d_292_1593)">
<rect x="4" y="84.8125" width="28.875" height="28.875" rx="3.85" fill="#59E9FF"/>
<path d="M15.55 105.025L22.942 99.481C23.096 99.3655 23.096 99.1345 22.942 99.019L15.55 93.475" stroke="#0E0F0E" stroke-width="1.44375" stroke-linecap="round"/>
</g>
<g filter="url(#filter2_d_292_1593)">
<rect x="4" y="123.312" width="28.875" height="28.875" rx="3.85" fill="#F9FAFA"/>
<path d="M15.55 143.525L22.942 137.981C23.096 137.865 23.096 137.634 22.942 137.519L15.55 131.975" stroke="#0E0F0E" stroke-width="1.44375" stroke-linecap="round"/>
</g>
<g filter="url(#filter3_d_292_1593)">
<rect x="4" y="161.812" width="28.875" height="28.875" rx="3.85" fill="#F9FAFA"/>
<path d="M15.55 182.025L22.942 176.481C23.096 176.365 23.096 176.134 22.942 176.019L15.55 170.475" stroke="#0E0F0E" stroke-width="1.44375" stroke-linecap="round"/>
</g>
<g filter="url(#filter4_d_292_1593)">
<rect x="4" y="200.312" width="28.875" height="28.875" rx="3.85" fill="#F9FAFA"/>
<path d="M15.55 220.525L22.942 214.981C23.096 214.865 23.096 214.634 22.942 214.519L15.55 208.975" stroke="#0E0F0E" stroke-width="1.44375" stroke-linecap="round"/>
</g>
<g filter="url(#filter5_d_292_1593)">
<rect x="47.3125" y="3" width="28.875" height="28.875" rx="3.85" fill="#F9FAFA" shape-rendering="crispEdges"/>
<path d="M66.5871 16.6245H65.1001V9.99769H66.5871V16.6245ZM62.9344 13.3761C62.9344 15.0941 61.4763 16.3069 59.4983 16.3069C57.5493 16.3069 56.0911 15.0941 56.0911 13.3761C56.0911 11.6436 57.5493 10.4308 59.4983 10.4308C61.4763 10.4308 62.9344 11.6436 62.9344 13.3761ZM57.5348 13.3761C57.5348 14.4156 58.3866 15.0941 59.4983 15.0941C60.6389 15.0941 61.4907 14.4156 61.4907 13.3761C61.4907 12.3366 60.6389 11.658 59.4983 11.658C58.3866 11.658 57.5348 12.3366 57.5348 13.3761ZM66.9769 21.7209V22.8904H58.069V19.4687H65.1145V18.3859H58.0401V17.2164H66.5871V20.5659H59.5272V21.7209H66.9769Z" fill="#0E0F0E"/>
</g>
<g filter="url(#filter6_d_292_1593)">
<rect x="85.8125" y="3" width="28.875" height="28.875" rx="3.85" fill="#F9FAFA" shape-rendering="crispEdges"/>
<path d="M103.658 16.1336V10.0121H105.145V17.6207H103.658V17.0576H101.203V16.1336H103.658ZM98.5036 14.1412C96.5401 14.1412 95.2552 13.3905 95.2552 12.1922C95.2552 10.9939 96.5401 10.2431 98.5036 10.2431C100.438 10.2431 101.738 10.9939 101.738 12.1922C101.738 13.3905 100.438 14.1412 98.5036 14.1412ZM98.5036 11.2393C97.3486 11.2393 96.6556 11.5714 96.6556 12.1922C96.6556 12.813 97.3486 13.1451 98.5036 13.1451C99.6153 13.1451 100.337 12.813 100.337 12.1922C100.337 11.5714 99.6153 11.2393 98.5036 11.2393ZM97.6807 15.8016C96.5257 15.8449 95.4718 15.8449 94.49 15.8449L94.3168 14.7765C96.8289 14.7765 99.9618 14.7476 102.734 14.4733L102.835 15.4117C101.622 15.585 100.395 15.6861 99.1822 15.7438V17.664H97.6807V15.8016ZM105.52 21.8797V22.9337H96.2658V19.974H103.672V19.1077H96.2369V18.0827H105.145V20.9269H97.7384V21.8797H105.52Z" fill="#0E0F0E"/>
</g>
<g filter="url(#filter7_d_292_1593)">
<rect x="162.812" y="3" width="28.875" height="28.875" rx="3.85" fill="#59E9FF" shape-rendering="crispEdges"/>
<path d="M182.044 16.0181C179.835 15.6716 178.117 14.5744 177.251 13.0729C176.384 14.5888 174.652 15.6716 172.443 16.0181L171.865 14.8198C174.522 14.43 176.457 12.8419 176.457 11.1238V10.4308H178.03V11.1238C178.03 12.8274 179.994 14.43 182.621 14.8198L182.044 16.0181ZM183.127 18.4581H177.944V23.0636H176.457V18.4581H171.346V17.2453H183.127V18.4581Z" fill="#0E0F0E"/>
</g>
<g filter="url(#filter8_d_292_1593)">
<rect x="124.312" y="3" width="28.875" height="28.875" rx="3.85" fill="#F9FAFA" shape-rendering="crispEdges"/>
<path d="M144.901 16.6822H143.039V23.0492H141.551V9.99769H143.039V15.4551H144.901V16.6822ZM140.671 12.7119H132.918V11.5136H136.065V10.041H137.552V11.5136H140.671V12.7119ZM137.552 19.3821C138.664 19.3243 139.776 19.2521 140.815 19.0933L140.931 20.1906C138.144 20.6959 135.112 20.7103 132.889 20.7103L132.687 19.4831C133.683 19.4831 134.852 19.4831 136.065 19.4398V18.1693C134.621 17.9239 133.683 17.0721 133.683 15.8016C133.683 14.3289 134.968 13.3616 136.816 13.3616C138.678 13.3616 139.934 14.3289 139.934 15.8016C139.934 17.0721 138.996 17.9383 137.552 18.1693V19.3821ZM135.083 15.8016C135.083 16.6101 135.776 17.0865 136.816 17.0865C137.855 17.0865 138.534 16.6101 138.534 15.8016C138.534 14.9931 137.855 14.5022 136.816 14.5022C135.776 14.5022 135.083 14.9931 135.083 15.8016Z" fill="#0E0F0E"/>
</g>
<g filter="url(#filter9_d_292_1593)">
<rect x="201.312" y="3" width="28.875" height="28.875" rx="3.85" fill="#F9FAFA" shape-rendering="crispEdges"/>
<path d="M221.641 16.509V17.7073H209.831V16.509H214.971V15.0508H211.333V10.5319H220.125V15.0508H216.472V16.509H221.641ZM212.791 13.8669H218.667V11.7157H212.791V13.8669ZM211.159 18.8623H220.183V23.0492H218.696V20.0606H211.159V18.8623Z" fill="#0E0F0E"/>
</g>
<g filter="url(#filter10_d_292_1593)">
<rect x="239.812" y="3" width="28.875" height="28.875" rx="3.85" fill="#F9FAFA" shape-rendering="crispEdges"/>
<path d="M260.156 15.3973V16.6101H248.346V15.3973H256.864C257.196 13.9391 257.225 12.8419 257.225 11.8601H249.833V10.6474H258.683V11.658C258.683 12.6975 258.683 13.8381 258.351 15.3973H260.156ZM249.775 18.1837H258.683V22.8904H249.775V18.1837ZM251.233 21.7065H257.225V19.3676H251.233V21.7065Z" fill="#0E0F0E"/>
</g>
<g filter="url(#filter11_d_292_1593)">
<rect x="278.312" y="3" width="28.875" height="28.875" rx="3.85" fill="#F9FAFA" shape-rendering="crispEdges"/>
<path d="M298.656 20.2916V21.5188H286.846V20.2916H291.985V17.8372H288.304V10.9939H297.226V12.2066H289.82V13.7803H296.937V14.9497H289.82V16.6534H297.342V17.8372H293.487V20.2916H298.656Z" fill="#0E0F0E"/>
</g>
<g filter="url(#filter12_dd_292_1593)">
<path d="M188.984 17.6552C186.956 16.0819 184 17.52 184 20.0767V54.9213C184 57.8344 187.695 59.1127 189.51 56.8265L198.135 45.9689C198.454 45.5688 198.859 45.2455 199.32 45.0234C199.782 44.8013 200.288 44.6861 200.801 44.6865H214.906C217.845 44.6865 219.123 40.9826 216.802 39.1881L188.984 17.6552Z" fill="#85E8AD"/>
</g>
<defs>
<filter id="filter0_d_292_1593" x="0" y="43.3125" width="36.875" height="36.875" filterUnits="userSpaceOnUse" color-interpolation-filters="sRGB">
<feFlood flood-opacity="0" result="BackgroundImageFix"/>
<feColorMatrix in="SourceAlpha" type="matrix" values="0 0 0 0 0 0 0 0 0 0 0 0 0 0 0 0 0 0 127 0" result="hardAlpha"/>
<feOffset dy="1"/>
<feGaussianBlur stdDeviation="2"/>
<feComposite in2="hardAlpha" operator="out"/>
<feColorMatrix type="matrix" values="0 0 0 0 0 0 0 0 0 0 0 0 0 0 0 0 0 0 0.15 0"/>
<feBlend mode="normal" in2="BackgroundImageFix" result="effect1_dropShadow_292_1593"/>
<feBlend mode="normal" in="SourceGraphic" in2="effect1_dropShadow_292_1593" result="shape"/>
</filter>
<filter id="filter1_d_292_1593" x="0" y="81.8125" width="36.875" height="36.875" filterUnits="userSpaceOnUse" color-interpolation-filters="sRGB">
<feFlood flood-opacity="0" result="BackgroundImageFix"/>
<feColorMatrix in="SourceAlpha" type="matrix" values="0 0 0 0 0 0 0 0 0 0 0 0 0 0 0 0 0 0 127 0" result="hardAlpha"/>
<feOffset dy="1"/>
<feGaussianBlur stdDeviation="2"/>
<feComposite in2="hardAlpha" operator="out"/>
<feColorMatrix type="matrix" values="0 0 0 0 0 0 0 0 0 0 0 0 0 0 0 0 0 0 0.15 0"/>
<feBlend mode="normal" in2="BackgroundImageFix" result="effect1_dropShadow_292_1593"/>
<feBlend mode="normal" in="SourceGraphic" in2="effect1_dropShadow_292_1593" result="shape"/>
</filter>
<filter id="filter2_d_292_1593" x="0" y="120.312" width="36.875" height="36.875" filterUnits="userSpaceOnUse" color-interpolation-filters="sRGB">
<feFlood flood-opacity="0" result="BackgroundImageFix"/>
<feColorMatrix in="SourceAlpha" type="matrix" values="0 0 0 0 0 0 0 0 0 0 0 0 0 0 0 0 0 0 127 0" result="hardAlpha"/>
<feOffset dy="1"/>
<feGaussianBlur stdDeviation="2"/>
<feComposite in2="hardAlpha" operator="out"/>
<feColorMatrix type="matrix" values="0 0 0 0 0 0 0 0 0 0 0 0 0 0 0 0 0 0 0.15 0"/>
<feBlend mode="normal" in2="BackgroundImageFix" result="effect1_dropShadow_292_1593"/>
<feBlend mode="normal" in="SourceGraphic" in2="effect1_dropShadow_292_1593" result="shape"/>
</filter>
<filter id="filter3_d_292_1593" x="0" y="158.812" width="36.875" height="36.875" filterUnits="userSpaceOnUse" color-interpolation-filters="sRGB">
<feFlood flood-opacity="0" result="BackgroundImageFix"/>
<feColorMatrix in="SourceAlpha" type="matrix" values="0 0 0 0 0 0 0 0 0 0 0 0 0 0 0 0 0 0 127 0" result="hardAlpha"/>
<feOffset dy="1"/>
<feGaussianBlur stdDeviation="2"/>
<feComposite in2="hardAlpha" operator="out"/>
<feColorMatrix type="matrix" values="0 0 0 0 0 0 0 0 0 0 0 0 0 0 0 0 0 0 0.15 0"/>
<feBlend mode="normal" in2="BackgroundImageFix" result="effect1_dropShadow_292_1593"/>
<feBlend mode="normal" in="SourceGraphic" in2="effect1_dropShadow_292_1593" result="shape"/>
</filter>
<filter id="filter4_d_292_1593" x="0" y="197.312" width="36.875" height="36.875" filterUnits="userSpaceOnUse" color-interpolation-filters="sRGB">
<feFlood flood-opacity="0" result="BackgroundImageFix"/>
<feColorMatrix in="SourceAlpha" type="matrix" values="0 0 0 0 0 0 0 0 0 0 0 0 0 0 0 0 0 0 127 0" result="hardAlpha"/>
<feOffset dy="1"/>
<feGaussianBlur stdDeviation="2"/>
<feComposite in2="hardAlpha" operator="out"/>
<feColorMatrix type="matrix" values="0 0 0 0 0 0 0 0 0 0 0 0 0 0 0 0 0 0 0.15 0"/>
<feBlend mode="normal" in2="BackgroundImageFix" result="effect1_dropShadow_292_1593"/>
<feBlend mode="normal" in="SourceGraphic" in2="effect1_dropShadow_292_1593" result="shape"/>
</filter>
<filter id="filter5_d_292_1593" x="43.3125" y="0" width="36.875" height="36.875" filterUnits="userSpaceOnUse" color-interpolation-filters="sRGB">
<feFlood flood-opacity="0" result="BackgroundImageFix"/>
<feColorMatrix in="SourceAlpha" type="matrix" values="0 0 0 0 0 0 0 0 0 0 0 0 0 0 0 0 0 0 127 0" result="hardAlpha"/>
<feOffset dy="1"/>
<feGaussianBlur stdDeviation="2"/>
<feComposite in2="hardAlpha" operator="out"/>
<feColorMatrix type="matrix" values="0 0 0 0 0 0 0 0 0 0 0 0 0 0 0 0 0 0 0.15 0"/>
<feBlend mode="normal" in2="BackgroundImageFix" result="effect1_dropShadow_292_1593"/>
<feBlend mode="normal" in="SourceGraphic" in2="effect1_dropShadow_292_1593" result="shape"/>
</filter>
<filter id="filter6_d_292_1593" x="81.8125" y="0" width="36.875" height="36.875" filterUnits="userSpaceOnUse" color-interpolation-filters="sRGB">
<feFlood flood-opacity="0" result="BackgroundImageFix"/>
<feColorMatrix in="SourceAlpha" type="matrix" values="0 0 0 0 0 0 0 0 0 0 0 0 0 0 0 0 0 0 127 0" result="hardAlpha"/>
<feOffset dy="1"/>
<feGaussianBlur stdDeviation="2"/>
<feComposite in2="hardAlpha" operator="out"/>
<feColorMatrix type="matrix" values="0 0 0 0 0 0 0 0 0 0 0 0 0 0 0 0 0 0 0.15 0"/>
<feBlend mode="normal" in2="BackgroundImageFix" result="effect1_dropShadow_292_1593"/>
<feBlend mode="normal" in="SourceGraphic" in2="effect1_dropShadow_292_1593" result="shape"/>
</filter>
<filter id="filter7_d_292_1593" x="158.812" y="0" width="36.875" height="36.875" filterUnits="userSpaceOnUse" color-interpolation-filters="sRGB">
<feFlood flood-opacity="0" result="BackgroundImageFix"/>
<feColorMatrix in="SourceAlpha" type="matrix" values="0 0 0 0 0 0 0 0 0 0 0 0 0 0 0 0 0 0 127 0" result="hardAlpha"/>
<feOffset dy="1"/>
<feGaussianBlur stdDeviation="2"/>
<feComposite in2="hardAlpha" operator="out"/>
<feColorMatrix type="matrix" values="0 0 0 0 0 0 0 0 0 0 0 0 0 0 0 0 0 0 0.15 0"/>
<feBlend mode="normal" in2="BackgroundImageFix" result="effect1_dropShadow_292_1593"/>
<feBlend mode="normal" in="SourceGraphic" in2="effect1_dropShadow_292_1593" result="shape"/>
</filter>
<filter id="filter8_d_292_1593" x="120.312" y="0" width="36.875" height="36.875" filterUnits="userSpaceOnUse" color-interpolation-filters="sRGB">
<feFlood flood-opacity="0" result="BackgroundImageFix"/>
<feColorMatrix in="SourceAlpha" type="matrix" values="0 0 0 0 0 0 0 0 0 0 0 0 0 0 0 0 0 0 127 0" result="hardAlpha"/>
<feOffset dy="1"/>
<feGaussianBlur stdDeviation="2"/>
<feComposite in2="hardAlpha" operator="out"/>
<feColorMatrix type="matrix" values="0 0 0 0 0 0 0 0 0 0 0 0 0 0 0 0 0 0 0.15 0"/>
<feBlend mode="normal" in2="BackgroundImageFix" result="effect1_dropShadow_292_1593"/>
<feBlend mode="normal" in="SourceGraphic" in2="effect1_dropShadow_292_1593" result="shape"/>
</filter>
<filter id="filter9_d_292_1593" x="197.312" y="0" width="36.875" height="36.875" filterUnits="userSpaceOnUse" color-interpolation-filters="sRGB">
<feFlood flood-opacity="0" result="BackgroundImageFix"/>
<feColorMatrix in="SourceAlpha" type="matrix" values="0 0 0 0 0 0 0 0 0 0 0 0 0 0 0 0 0 0 127 0" result="hardAlpha"/>
<feOffset dy="1"/>
<feGaussianBlur stdDeviation="2"/>
<feComposite in2="hardAlpha" operator="out"/>
<feColorMatrix type="matrix" values="0 0 0 0 0 0 0 0 0 0 0 0 0 0 0 0 0 0 0.15 0"/>
<feBlend mode="normal" in2="BackgroundImageFix" result="effect1_dropShadow_292_1593"/>
<feBlend mode="normal" in="SourceGraphic" in2="effect1_dropShadow_292_1593" result="shape"/>
</filter>
<filter id="filter10_d_292_1593" x="235.812" y="0" width="36.875" height="36.875" filterUnits="userSpaceOnUse" color-interpolation-filters="sRGB">
<feFlood flood-opacity="0" result="BackgroundImageFix"/>
<feColorMatrix in="SourceAlpha" type="matrix" values="0 0 0 0 0 0 0 0 0 0 0 0 0 0 0 0 0 0 127 0" result="hardAlpha"/>
<feOffset dy="1"/>
<feGaussianBlur stdDeviation="2"/>
<feComposite in2="hardAlpha" operator="out"/>
<feColorMatrix type="matrix" values="0 0 0 0 0 0 0 0 0 0 0 0 0 0 0 0 0 0 0.15 0"/>
<feBlend mode="normal" in2="BackgroundImageFix" result="effect1_dropShadow_292_1593"/>
<feBlend mode="normal" in="SourceGraphic" in2="effect1_dropShadow_292_1593" result="shape"/>
</filter>
<filter id="filter11_d_292_1593" x="274.312" y="0" width="36.875" height="36.875" filterUnits="userSpaceOnUse" color-interpolation-filters="sRGB">
<feFlood flood-opacity="0" result="BackgroundImageFix"/>
<feColorMatrix in="SourceAlpha" type="matrix" values="0 0 0 0 0 0 0 0 0 0 0 0 0 0 0 0 0 0 127 0" result="hardAlpha"/>
<feOffset dy="1"/>
<feGaussianBlur stdDeviation="2"/>
<feComposite in2="hardAlpha" operator="out"/>
<feColorMatrix type="matrix" values="0 0 0 0 0 0 0 0 0 0 0 0 0 0 0 0 0 0 0.15 0"/>
<feBlend mode="normal" in2="BackgroundImageFix" result="effect1_dropShadow_292_1593"/>
<feBlend mode="normal" in="SourceGraphic" in2="effect1_dropShadow_292_1593" result="shape"/>
</filter>
<filter id="filter12_dd_292_1593" x="178" y="13" width="46" height="53" filterUnits="userSpaceOnUse" color-interpolation-filters="sRGB">
<feFlood flood-opacity="0" result="BackgroundImageFix"/>
<feColorMatrix in="SourceAlpha" type="matrix" values="0 0 0 0 0 0 0 0 0 0 0 0 0 0 0 0 0 0 127 0" result="hardAlpha"/>
<feOffset dy="1"/>
<feGaussianBlur stdDeviation="2"/>
<feComposite in2="hardAlpha" operator="out"/>
<feColorMatrix type="matrix" values="0 0 0 0 0 0 0 0 0 0 0 0 0 0 0 0 0 0 0.15 0"/>
<feBlend mode="normal" in2="BackgroundImageFix" result="effect1_dropShadow_292_1593"/>
<feColorMatrix in="SourceAlpha" type="matrix" values="0 0 0 0 0 0 0 0 0 0 0 0 0 0 0 0 0 0 127 0" result="hardAlpha"/>
<feOffset dy="2"/>
<feGaussianBlur stdDeviation="3"/>
<feComposite in2="hardAlpha" operator="out"/>
<feColorMatrix type="matrix" values="0 0 0 0 0 0 0 0 0 0 0 0 0 0 0 0 0 0 0.2 0"/>
<feBlend mode="normal" in2="effect1_dropShadow_292_1593" result="effect2_dropShadow_292_1593"/>
<feBlend mode="normal" in="SourceGraphic" in2="effect2_dropShadow_292_1593" result="shape"/>
</filter>
</defs>
</svg>
