<svg width="80" height="80" viewBox="0 0 80 80" fill="none" xmlns="http://www.w3.org/2000/svg">
<g id="&#237;&#148;&#132;&#235;&#161;&#156;&#237;&#149;&#132; 1">
<circle id="Ellipse 8" cx="40" cy="40" r="38.5" stroke="black" stroke-width="3"/>
<circle id="Ellipse 28" cx="39.9999" cy="40" r="38.2667" fill="url(#paint0_linear_611_2006)"/>
<g id="Mask group">
<mask id="mask0_611_2006" style="mask-type:alpha" maskUnits="userSpaceOnUse" x="1" y="1" width="78" height="78">
<circle id="Ellipse 9" cx="39.9999" cy="40" r="37.7667" fill="#D6DCDC" stroke="black"/>
</mask>
<g mask="url(#mask0_611_2006)">
<g id="&#236;&#186;&#144;&#235;&#166;&#173;&#237;&#132;&#176;">
<path id="HAPIT" d="M12.6667 72.5816V24.8316C12.6667 18.4913 16.8275 14.1324 23.465 14.0334H48.0335C62.8934 14.0334 72.8001 22.7512 72.8001 36.3233C72.8001 49.8954 62.8934 58.9105 48.0335 58.9105H34.4614V72.5816C34.4614 79.0209 30.2015 83.3799 23.465 83.3799C17.0257 83.3799 12.6667 79.0209 12.6667 72.5816Z" fill="#01CDEC"/>
<path id="Ellipse 24" d="M48.4663 33.8468C48.4663 38.4062 44.7701 42.1024 40.2107 42.1024C35.6513 42.1024 31.9552 38.4062 31.9552 33.8468C31.9552 29.2874 35.6513 25.5913 40.2107 25.5913C44.7701 25.5913 48.4663 29.2874 48.4663 33.8468Z" fill="#F5F5F5"/>
<circle id="Ellipse 26" cx="59.8176" cy="33.8468" r="8.25554" fill="#F5F5F5"/>
<path id="Ellipse 25" d="M47.4342 32.8149C47.4342 36.2344 44.6621 39.0065 41.2426 39.0065C37.823 39.0065 35.0509 36.2344 35.0509 32.8149C35.0509 29.3953 37.823 26.6232 41.2426 26.6232C44.6621 26.6232 47.4342 29.3953 47.4342 32.8149Z" fill="#0F0E0E"/>
<path id="Ellipse 27" d="M67.0411 32.8149C67.0411 36.2344 64.269 39.0065 60.8495 39.0065C57.4299 39.0065 54.6578 36.2344 54.6578 32.8149C54.6578 29.3953 57.4299 26.6232 60.8495 26.6232C64.269 26.6232 67.0411 29.3953 67.0411 32.8149Z" fill="#0F0E0E"/>
</g>
</g>
</g>
<path id="Union" fill-rule="evenodd" clip-rule="evenodd" d="M23.0056 13.1063C23.0783 12.736 22.837 12.3769 22.4666 12.3042C22.0963 12.2315 21.7372 12.4728 21.6645 12.8431L20.8643 16.9203L17.8364 14.2786C17.5521 14.0305 17.1204 14.0599 16.8723 14.3443C16.6242 14.6286 16.6536 15.0603 16.938 15.3084L19.9451 17.932L16.1694 19.2245C15.8124 19.3467 15.622 19.7352 15.7442 20.0923C15.8664 20.4493 16.255 20.6397 16.612 20.5175L20.4137 19.2161L19.6715 22.998C19.5988 23.3684 19.8401 23.7275 20.2104 23.8002C20.5808 23.8729 20.9399 23.6316 21.0126 23.2612L21.7495 19.5063L24.7359 22.1119C25.0202 22.36 25.4519 22.3306 25.7 22.0462C25.9481 21.7618 25.9187 21.3302 25.6343 21.082L22.6272 18.4584L26.4029 17.166C26.76 17.0438 26.9504 16.6553 26.8281 16.2982C26.7059 15.9412 26.3174 15.7508 25.9603 15.873L22.2107 17.1565L23.0056 13.1063Z" fill="#00A8C1"/>
<path id="Union_2" fill-rule="evenodd" clip-rule="evenodd" d="M74.3325 39.4745C74.4833 39.6348 74.4756 39.8871 74.3152 40.0379L72.608 41.6436L74.9287 42.3423C75.1395 42.4058 75.2589 42.6281 75.1954 42.8389C75.132 43.0496 74.9097 43.1691 74.6989 43.1056L72.3935 42.4116L72.9232 44.6617C72.9736 44.876 72.8408 45.0906 72.6265 45.141C72.4122 45.1915 72.1977 45.0587 72.1472 44.8444L71.6139 42.5786L69.9183 44.1734C69.7579 44.3242 69.5057 44.3165 69.3549 44.1561C69.2041 43.9958 69.2118 43.7435 69.3721 43.5927L71.0561 42.0089L68.919 41.3655C68.7082 41.302 68.5888 41.0797 68.6522 40.8689C68.7157 40.6582 68.938 40.5387 69.1488 40.6022L71.3012 41.2502L70.7642 38.9688C70.7138 38.7545 70.8466 38.5399 71.0609 38.4895C71.2752 38.439 71.4898 38.5719 71.5402 38.7861L72.0735 41.052L73.7691 39.4572C73.9294 39.3064 74.1817 39.3141 74.3325 39.4745Z" fill="#00A8C1"/>
<path id="Union_3" fill-rule="evenodd" clip-rule="evenodd" d="M35.1377 66.0099C35.3206 66.1325 35.3695 66.3801 35.2469 66.5629L33.9421 68.51L36.3602 68.6718C36.5798 68.6865 36.746 68.8764 36.7313 69.0961C36.7166 69.3157 36.5266 69.4818 36.307 69.4671L33.905 69.3064L34.9245 71.3811C35.0216 71.5786 34.9402 71.8175 34.7426 71.9146C34.545 72.0117 34.3062 71.9302 34.2091 71.7326L33.1824 69.6435L31.8865 71.5772C31.764 71.7601 31.5164 71.809 31.3335 71.6864C31.1507 71.5639 31.1018 71.3163 31.2243 71.1335L32.5112 69.2131L30.2842 69.0641C30.0646 69.0494 29.8985 68.8594 29.9132 68.6398C29.9279 68.4202 30.1178 68.254 30.3375 68.2687L32.5805 68.4188L31.5468 66.3153C31.4497 66.1177 31.5311 65.8789 31.7287 65.7818C31.9263 65.6847 32.1651 65.7662 32.2622 65.9637L33.2889 68.0528L34.5847 66.1192C34.7073 65.9363 34.9548 65.8874 35.1377 66.0099Z" fill="#00A8C1"/>
<g id="Group 2">
<path id="Polygon 3" d="M35.3944 59.1245C36.0794 59.2607 36.0651 60.2451 35.3764 60.3611L23.7375 62.3225C22.6658 62.5031 21.6637 61.743 21.5486 60.6624L21.3534 58.8295C21.2187 57.5647 22.349 56.5319 23.5965 56.7799L35.3944 59.1245Z" fill="#65EF9C"/>
<path id="Polygon 5" d="M33.9827 58.752C33.3197 58.5325 32.8465 59.3958 33.3883 59.8366L42.5441 67.2851C43.3871 67.971 44.6338 67.8043 45.2671 66.9211L46.3412 65.4233C47.0824 64.3896 46.6089 62.9336 45.4014 62.5337L33.9827 58.752Z" fill="#65EF9C"/>
<path id="Polygon 4" d="M35.0924 59.7687C35.7385 59.9697 36.2026 59.1483 35.697 58.6986L28.4213 52.2275C27.5683 51.4689 26.2421 51.6359 25.604 52.5824L24.662 53.9795C23.9556 55.0271 24.4589 56.4594 25.6653 56.8349L35.0924 59.7687Z" fill="#65EF9C"/>
<path id="Polygon 6" d="M33.9276 59.4613C33.2664 59.3174 33.268 58.3739 33.9296 58.2322L43.451 56.1935C44.5672 55.9544 45.6382 56.7541 45.7263 57.8922L45.8564 59.5722C45.9539 60.8319 44.8094 61.8294 43.5748 61.5607L33.9276 59.4613Z" fill="#65EF9C"/>
<rect id="Rectangle 74" x="33.4298" y="56.9091" width="3.14352" height="3.77222" rx="1.25741" transform="rotate(14.782 33.4298 56.9091)" fill="#46D681"/>
</g>
</g>
<defs>
<linearGradient id="paint0_linear_611_2006" x1="39.9999" y1="1.73337" x2="39.9999" y2="78.2667" gradientUnits="userSpaceOnUse">
<stop stop-color="#7CFCAF"/>
<stop offset="1" stop-color="#C6E6F0"/>
</linearGradient>
</defs>
</svg>
