<svg width="60" height="60" viewBox="0 0 60 60" fill="none" xmlns="http://www.w3.org/2000/svg">
<g id="&#237;&#148;&#132;&#235;&#161;&#156;&#237;&#149;&#132; 4">
<circle id="Ellipse 28" cx="30" cy="30" r="30" fill="url(#paint0_linear_611_2163)"/>
<g id="Mask group">
<mask id="mask0_611_2163" style="mask-type:alpha" maskUnits="userSpaceOnUse" x="0" y="0" width="60" height="60">
<circle id="Ellipse 9" cx="30" cy="30" r="30" fill="#D6DCDC"/>
</mask>
<g mask="url(#mask0_611_2163)">
<g id="&#236;&#186;&#144;&#235;&#166;&#173;&#237;&#132;&#176;">
<path id="HAPIT" d="M8.5715 55.543V18.1083C8.5715 13.1378 11.8335 9.72049 17.037 9.64282H36.298C47.9478 9.64282 55.7144 16.4774 55.7144 27.1175C55.7144 37.7577 47.9478 44.8252 36.298 44.8252H25.6579V55.543C25.6579 60.5913 22.3183 64.0086 17.037 64.0086C11.9888 64.0086 8.5715 60.5913 8.5715 55.543Z" fill="#01CDEC"/>
<path id="Ellipse 24" d="M36.6373 25.1757C36.6373 28.7502 33.7396 31.6478 30.1652 31.6478C26.5907 31.6478 23.6931 28.7502 23.6931 25.1757C23.6931 21.6013 26.5907 18.7036 30.1652 18.7036C33.7396 18.7036 36.6373 21.6013 36.6373 25.1757Z" fill="#F5F5F5"/>
<circle id="Ellipse 26" cx="45.5365" cy="25.1757" r="6.47211" fill="#F5F5F5"/>
<path id="Ellipse 25" d="M35.8283 24.3668C35.8283 27.0476 33.655 29.2209 30.9742 29.2209C28.2933 29.2209 26.1201 27.0476 26.1201 24.3668C26.1201 21.6859 28.2933 19.5127 30.9742 19.5127C33.655 19.5127 35.8283 21.6859 35.8283 24.3668Z" fill="#0F0E0E"/>
<path id="Ellipse 27" d="M51.1995 24.3668C51.1995 27.0476 49.0263 29.2209 46.3454 29.2209C43.6646 29.2209 41.4913 27.0476 41.4913 24.3668C41.4913 21.6859 43.6646 19.5127 46.3454 19.5127C49.0263 19.5127 51.1995 21.6859 51.1995 24.3668Z" fill="#0F0E0E"/>
</g>
</g>
</g>
<path id="Union" fill-rule="evenodd" clip-rule="evenodd" d="M16.6669 8.91365C16.7228 8.62881 16.5372 8.35258 16.2523 8.29668C15.9675 8.24077 15.6913 8.42636 15.6354 8.71121L15.0047 11.9248L12.6177 9.84224C12.399 9.65141 12.0669 9.67402 11.8761 9.89275C11.6853 10.1115 11.7079 10.4435 11.9266 10.6343L14.2974 12.7028L11.3208 13.7217C11.0461 13.8157 10.8997 14.1146 10.9937 14.3892C11.0877 14.6638 11.3865 14.8103 11.6612 14.7163L14.6581 13.6904L14.0729 16.6724C14.017 16.9572 14.2026 17.2334 14.4874 17.2893C14.7723 17.3452 15.0485 17.1597 15.1044 16.8748L15.6855 13.9139L18.0399 15.968C18.2587 16.1589 18.5907 16.1363 18.7815 15.9175C18.9724 15.6988 18.9498 15.3668 18.731 15.176L16.3605 13.1077L19.337 12.0888C19.6116 11.9948 19.758 11.696 19.664 11.4213C19.57 11.1467 19.2712 11.0003 18.9965 11.0943L16.0403 12.1062L16.6669 8.91365Z" fill="#00A8C1"/>
<path id="Union_2" fill-rule="evenodd" clip-rule="evenodd" d="M56.9115 29.592C57.0275 29.7154 57.0215 29.9094 56.8982 30.0254L55.5525 31.291L57.3815 31.8416C57.5436 31.8905 57.6355 32.0615 57.5867 32.2236C57.5379 32.3857 57.3669 32.4776 57.2047 32.4288L55.3875 31.8817L55.8052 33.6561C55.844 33.8209 55.7418 33.9859 55.577 34.0247C55.4122 34.0635 55.2471 33.9614 55.2083 33.7966L54.7879 32.0102L53.4511 33.2675C53.3278 33.3835 53.1338 33.3776 53.0178 33.2542C52.9018 33.1309 52.9077 32.9369 53.031 32.8209L54.3589 31.572L52.6734 31.0646C52.5113 31.0157 52.4194 30.8448 52.4683 30.6826C52.5171 30.5205 52.6881 30.4286 52.8502 30.4774L54.5474 30.9884L54.1241 29.1902C54.0853 29.0254 54.1875 28.8604 54.3523 28.8216C54.5171 28.7828 54.6822 28.8849 54.721 29.0498L55.1414 30.836L56.4781 29.5788C56.6014 29.4628 56.7955 29.4687 56.9115 29.592Z" fill="#00A8C1"/>
<path id="Union_3" fill-rule="evenodd" clip-rule="evenodd" d="M26.1848 50.3956C26.3255 50.4899 26.3631 50.6803 26.2688 50.821L25.2402 52.3559L27.1461 52.4834C27.315 52.4947 27.4428 52.6409 27.4315 52.8098C27.4202 52.9787 27.2741 53.1065 27.1052 53.0952L25.2116 52.9685L26.0157 54.6046C26.0904 54.7566 26.0277 54.9403 25.8758 55.015C25.7238 55.0896 25.5401 55.027 25.4654 54.875L24.6559 53.2278L23.6344 54.752C23.5401 54.8927 23.3497 54.9303 23.209 54.836C23.0684 54.7418 23.0308 54.5513 23.125 54.4107L24.1396 52.8968L22.3835 52.7792C22.2146 52.7679 22.0868 52.6218 22.0981 52.4529C22.1094 52.2839 22.2555 52.1562 22.4245 52.1675L24.193 52.2858L23.3782 50.628C23.3036 50.476 23.3662 50.2923 23.5182 50.2176C23.6701 50.143 23.8538 50.2056 23.9285 50.3576L24.7378 52.0042L25.7595 50.4796C25.8537 50.339 26.0442 50.3014 26.1848 50.3956Z" fill="#00A8C1"/>
<g id="Group 2">
<path id="Polygon 3" d="M26.4392 45.0028C26.9661 45.1075 26.955 45.8647 26.4253 45.9539L17.2215 47.505C16.3972 47.6439 15.6263 47.0592 15.5378 46.228L15.3776 44.7239C15.274 43.751 16.1434 42.9566 17.103 43.1473L26.4392 45.0028Z" fill="#65EF9C"/>
<path id="Polygon 5" d="M25.2345 44.6847C24.7246 44.5158 24.3606 45.1799 24.7773 45.5189L32.0176 51.4091C32.666 51.9366 33.625 51.8084 34.1121 51.1291L34.9935 49.8998C35.5636 49.1048 35.1994 47.9849 34.2707 47.6773L25.2345 44.6847Z" fill="#65EF9C"/>
<path id="Polygon 4" d="M26.1938 45.5107C26.6907 45.6654 27.0477 45.0335 26.6588 44.6877L20.8987 39.5646C20.2426 38.9811 19.2226 39.1096 18.7318 39.8376L17.9544 40.9905C17.4111 41.7963 17.7983 42.8979 18.7262 43.1867L26.1938 45.5107Z" fill="#65EF9C"/>
<path id="Polygon 6" d="M25.1973 45.2477C24.6888 45.137 24.69 44.4113 25.1989 44.3023L32.7367 42.6883C33.5953 42.5044 34.4191 43.1195 34.4869 43.9949L34.5942 45.3812C34.6692 46.3501 33.7889 47.1174 32.8393 46.9107L25.1973 45.2477Z" fill="#65EF9C"/>
<rect id="Rectangle 74" x="24.8492" y="43.2563" width="2.46443" height="2.95731" rx="0.967152" transform="rotate(14.782 24.8492 43.2563)" fill="#46D681"/>
</g>
</g>
<defs>
<linearGradient id="paint0_linear_611_2163" x1="30" y1="0" x2="30" y2="60" gradientUnits="userSpaceOnUse">
<stop stop-color="#7CFCAF"/>
<stop offset="1" stop-color="#C6E6F0"/>
</linearGradient>
</defs>
</svg>
