<svg width="56" height="55" viewBox="0 0 56 55" fill="none" xmlns="http://www.w3.org/2000/svg">
<g id="&#234;&#178;&#189;&#234;&#179;&#160;">
<path id="Polygon 2" d="M24.5359 6.00001C26.0755 3.33334 29.9245 3.33333 31.4641 6L48.3516 35.25C49.8912 37.9167 47.9667 41.25 44.8875 41.25H11.1125C8.03331 41.25 6.1088 37.9167 7.6484 35.25L24.5359 6.00001Z" fill="#FBDFDF"/>
<path id="!" d="M27.7294 30.152C27.225 30.152 26.7996 29.7764 26.7371 29.276L25.62 20.336L25.5373 18.0359C25.5169 17.4699 25.9702 17 26.5366 17H29.4634C30.0298 17 30.4831 17.4699 30.4628 18.0359L30.38 20.336L29.2603 29.2763C29.1976 29.7766 28.7722 30.152 28.268 30.152H27.7294ZM27.2706 35.576C26.7183 35.576 26.2706 35.1283 26.2706 34.576V33.168C26.2706 32.6157 26.7183 32.168 27.2706 32.168H28.7746C29.3269 32.168 29.7746 32.6157 29.7746 33.168V34.576C29.7746 35.1283 29.3269 35.576 28.7746 35.576H27.2706Z" fill="#E83E3E"/>
</g>
</svg>
